<svg width="468" height="399" viewBox="0 0 468 399" fill="none" xmlns="http://www.w3.org/2000/svg">
<path d="M408 220.5C408 314.665 329.426 391 232.5 391C135.574 391 57 314.665 57 220.5C57 126.335 135.574 50 232.5 50C329.426 50 408 126.335 408 220.5ZM126.349 220.5C126.349 277.455 173.874 323.627 232.5 323.627C291.126 323.627 338.651 277.455 338.651 220.5C338.651 163.545 291.126 117.373 232.5 117.373C173.874 117.373 126.349 163.545 126.349 220.5Z" fill="url(#paint0_linear_1917_4411)"/>
<g filter="url(#filter0_d_1917_4411)">
<path d="M40 51C40 42.7157 46.7157 36 55 36H240.75C249.034 36 255.75 42.7157 255.75 51V296.065C255.75 304.349 249.034 311.065 240.75 311.065H55C46.7157 311.065 40 304.349 40 296.065V51Z" fill="white"/>
</g>
<path d="M58.5 278C58.5 275.191 58.5004 273.115 58.6346 271.473C58.7683 269.836 59.0324 268.674 59.5354 267.687C60.4462 265.9 61.8996 264.446 63.6871 263.535C64.6744 263.032 65.8361 262.768 67.4727 262.635C69.1152 262.5 71.1915 262.5 74 262.5H222C224.809 262.5 226.885 262.5 228.527 262.635C230.164 262.768 231.326 263.032 232.313 263.535C234.1 264.446 235.554 265.9 236.465 267.687C236.968 268.674 237.232 269.836 237.365 271.473C237.5 273.115 237.5 275.191 237.5 278C237.5 280.809 237.5 282.885 237.365 284.527C237.232 286.164 236.968 287.326 236.465 288.313C235.554 290.1 234.1 291.554 232.313 292.465C231.326 292.968 230.164 293.232 228.527 293.365C226.885 293.5 224.809 293.5 222 293.5H74C71.1915 293.5 69.1152 293.5 67.4727 293.365C65.8361 293.232 64.6744 292.968 63.6871 292.465C61.8996 291.554 60.4462 290.1 59.5354 288.313C59.0324 287.326 58.7683 286.164 58.6346 284.527C58.5004 282.885 58.5 280.809 58.5 278Z" fill="#1E47FF" stroke="#1E47FF"/>
<line x1="62.25" y1="203" x2="233.069" y2="203" stroke="black" stroke-opacity="0.1" stroke-width="10" stroke-linecap="round"/>
<line x1="62.25" y1="221" x2="233.069" y2="221" stroke="black" stroke-opacity="0.1" stroke-width="10" stroke-linecap="round"/>
<line x1="62.25" y1="240" x2="233.069" y2="240" stroke="black" stroke-opacity="0.1" stroke-width="10" stroke-linecap="round"/>
<line x1="62.8047" y1="186.471" x2="233.624" y2="186.471" stroke="black" stroke-opacity="0.1" stroke-width="10" stroke-linecap="round"/>
<path d="M40.6875 51C40.6875 42.7157 47.4032 36 55.6875 36H240.753C249.037 36 255.753 42.7157 255.753 51V139.413H40.6875V51Z" fill="#1E47FF" fill-opacity="0.05"/>
<rect x="57" y="120" width="44.5199" height="44.3199" rx="15" fill="#F4F6FF"/>
<rect x="57.5" y="120.5" width="43.5199" height="43.3199" rx="14.5" stroke="black" stroke-opacity="0.1"/>
<path d="M107.288 145.818L111.002 152.401V156H113.14V152.401L116.854 145.818H114.442L112.121 150.203H112.021L109.7 145.818H107.288ZM119.854 156.149C122.171 156.149 123.613 154.563 123.613 152.212C123.613 149.845 122.171 148.264 119.854 148.264C117.537 148.264 116.096 149.845 116.096 152.212C116.096 154.563 117.537 156.149 119.854 156.149ZM119.864 154.509C118.795 154.509 118.248 153.529 118.248 152.197C118.248 150.864 118.795 149.88 119.864 149.88C120.913 149.88 121.46 150.864 121.46 152.197C121.46 153.529 120.913 154.509 119.864 154.509ZM129.887 152.749C129.892 153.773 129.191 154.31 128.43 154.31C127.63 154.31 127.113 153.748 127.108 152.848V148.364H124.99V153.226C124.995 155.011 126.039 156.099 127.575 156.099C128.723 156.099 129.549 155.508 129.892 154.613H129.971V156H132.005V148.364H129.887V152.749ZM133.699 156H135.817V151.68C135.817 150.74 136.503 150.094 137.437 150.094C137.731 150.094 138.133 150.143 138.332 150.208V148.329C138.143 148.284 137.88 148.254 137.666 148.254C136.811 148.254 136.11 148.751 135.831 149.696H135.752V148.364H133.699V156ZM148.231 148.746H150.294C150.264 146.932 148.773 145.679 146.506 145.679C144.273 145.679 142.638 146.912 142.648 148.761C142.643 150.263 143.702 151.123 145.422 151.536L146.53 151.814C147.639 152.082 148.256 152.401 148.26 153.087C148.256 153.832 147.55 154.339 146.456 154.339C145.337 154.339 144.532 153.822 144.462 152.803H142.379C142.434 155.006 144.01 156.144 146.481 156.144C148.966 156.144 150.428 154.956 150.433 153.092C150.428 151.396 149.15 150.496 147.381 150.099L146.466 149.88C145.581 149.676 144.84 149.348 144.855 148.617C144.855 147.961 145.437 147.479 146.491 147.479C147.52 147.479 148.151 147.946 148.231 148.746ZM155.903 148.364H154.466V146.534H152.348V148.364H151.304V149.955H152.348V153.932C152.338 155.428 153.358 156.169 154.894 156.104C155.441 156.085 155.828 155.975 156.042 155.906L155.709 154.33C155.605 154.349 155.381 154.399 155.182 154.399C154.76 154.399 154.466 154.24 154.466 153.653V149.955H155.903V148.364ZM159.46 156.144C160.589 156.144 161.32 155.652 161.692 154.941H161.752V156H163.761V150.849C163.761 149.03 162.219 148.264 160.519 148.264C158.69 148.264 157.487 149.139 157.193 150.531L159.152 150.69C159.296 150.183 159.749 149.81 160.509 149.81C161.23 149.81 161.643 150.173 161.643 150.8V150.83C161.643 151.322 161.121 151.386 159.793 151.516C158.282 151.655 156.925 152.162 156.925 153.867C156.925 155.379 158.004 156.144 159.46 156.144ZM160.067 154.683C159.415 154.683 158.948 154.379 158.948 153.798C158.948 153.201 159.44 152.908 160.186 152.803C160.648 152.739 161.404 152.629 161.658 152.46V153.271C161.658 154.071 160.996 154.683 160.067 154.683ZM165.404 156H167.522V151.68C167.522 150.74 168.208 150.094 169.142 150.094C169.436 150.094 169.838 150.143 170.037 150.208V148.329C169.848 148.284 169.585 148.254 169.371 148.254C168.516 148.254 167.815 148.751 167.537 149.696H167.457V148.364H165.404V156ZM175.577 148.364H174.14V146.534H172.022V148.364H170.978V149.955H172.022V153.932C172.012 155.428 173.031 156.169 174.568 156.104C175.115 156.085 175.502 155.975 175.716 155.906L175.383 154.33C175.279 154.349 175.055 154.399 174.856 154.399C174.433 154.399 174.14 154.24 174.14 153.653V149.955H175.577V148.364ZM181.854 152.749C181.858 153.773 181.157 154.31 180.397 154.31C179.596 154.31 179.079 153.748 179.074 152.848V148.364H176.956V153.226C176.961 155.011 178.006 156.099 179.542 156.099C180.69 156.099 181.515 155.508 181.858 154.613H181.938V156H183.971V148.364H181.854V152.749ZM185.665 158.864H187.783V154.777H187.848C188.141 155.413 188.783 156.124 190.016 156.124C191.756 156.124 193.113 154.747 193.113 152.192C193.113 149.567 191.696 148.264 190.021 148.264C188.743 148.264 188.131 149.025 187.848 149.646H187.754V148.364H185.665V158.864ZM187.739 152.182C187.739 150.82 188.315 149.95 189.344 149.95C190.393 149.95 190.95 150.859 190.95 152.182C190.95 153.514 190.384 154.439 189.344 154.439C188.325 154.439 187.739 153.544 187.739 152.182Z" fill="black"/>
<path d="M130.759 283V274.273H134.202C134.861 274.273 135.423 274.391 135.889 274.626C136.358 274.859 136.714 275.19 136.959 275.619C137.206 276.045 137.33 276.547 137.33 277.124C137.33 277.703 137.205 278.202 136.955 278.619C136.705 279.034 136.342 279.352 135.868 279.574C135.396 279.795 134.825 279.906 134.155 279.906H131.849V278.423H133.857C134.209 278.423 134.501 278.375 134.734 278.278C134.967 278.182 135.141 278.037 135.254 277.844C135.371 277.651 135.429 277.411 135.429 277.124C135.429 276.834 135.371 276.589 135.254 276.391C135.141 276.192 134.966 276.041 134.73 275.939C134.497 275.834 134.203 275.781 133.848 275.781H132.604V283H130.759ZM135.472 279.028L137.641 283H135.604L133.482 279.028H135.472ZM140.466 283.124C140.048 283.124 139.676 283.051 139.349 282.906C139.023 282.759 138.764 282.541 138.574 282.254C138.386 281.964 138.293 281.604 138.293 281.172C138.293 280.808 138.359 280.503 138.493 280.256C138.626 280.009 138.808 279.81 139.038 279.659C139.268 279.509 139.53 279.395 139.822 279.318C140.118 279.241 140.428 279.188 140.751 279.156C141.132 279.116 141.439 279.08 141.672 279.045C141.905 279.009 142.074 278.955 142.179 278.884C142.284 278.812 142.337 278.707 142.337 278.568V278.543C142.337 278.273 142.251 278.064 142.081 277.916C141.913 277.768 141.675 277.695 141.365 277.695C141.038 277.695 140.778 277.767 140.585 277.912C140.392 278.054 140.264 278.233 140.202 278.449L138.523 278.312C138.608 277.915 138.776 277.571 139.026 277.281C139.276 276.989 139.598 276.764 139.993 276.608C140.391 276.449 140.851 276.369 141.374 276.369C141.737 276.369 142.085 276.412 142.418 276.497C142.753 276.582 143.05 276.714 143.308 276.893C143.57 277.072 143.776 277.303 143.926 277.584C144.077 277.862 144.152 278.196 144.152 278.585V283H142.43V282.092H142.379C142.274 282.297 142.134 282.477 141.957 282.634C141.781 282.787 141.57 282.908 141.322 282.996C141.075 283.081 140.79 283.124 140.466 283.124ZM140.986 281.871C141.253 281.871 141.489 281.818 141.693 281.713C141.898 281.605 142.058 281.46 142.175 281.278C142.291 281.097 142.349 280.891 142.349 280.661V279.966C142.293 280.003 142.214 280.037 142.115 280.068C142.018 280.097 141.909 280.124 141.787 280.149C141.665 280.172 141.543 280.193 141.42 280.213C141.298 280.23 141.188 280.246 141.088 280.26C140.875 280.291 140.689 280.341 140.53 280.409C140.371 280.477 140.247 280.57 140.159 280.686C140.071 280.8 140.027 280.942 140.027 281.112C140.027 281.359 140.116 281.548 140.295 281.679C140.477 281.807 140.707 281.871 140.986 281.871ZM145.56 283V276.455H147.376V283H145.56ZM146.472 275.611C146.202 275.611 145.971 275.521 145.778 275.342C145.587 275.161 145.492 274.943 145.492 274.69C145.492 274.44 145.587 274.226 145.778 274.047C145.971 273.865 146.202 273.774 146.472 273.774C146.742 273.774 146.972 273.865 147.163 274.047C147.356 274.226 147.452 274.44 147.452 274.69C147.452 274.943 147.356 275.161 147.163 275.342C146.972 275.521 146.742 275.611 146.472 275.611ZM154.276 278.321L152.614 278.423C152.586 278.281 152.525 278.153 152.431 278.04C152.337 277.923 152.213 277.831 152.06 277.763C151.909 277.692 151.729 277.656 151.519 277.656C151.238 277.656 151 277.716 150.807 277.835C150.614 277.952 150.517 278.108 150.517 278.304C150.517 278.46 150.58 278.592 150.705 278.7C150.83 278.808 151.044 278.895 151.348 278.96L152.533 279.199C153.169 279.33 153.644 279.54 153.956 279.83C154.269 280.119 154.425 280.5 154.425 280.972C154.425 281.401 154.299 281.777 154.046 282.101C153.796 282.425 153.452 282.678 153.015 282.859C152.58 283.038 152.078 283.128 151.51 283.128C150.644 283.128 149.953 282.947 149.439 282.587C148.928 282.223 148.628 281.729 148.54 281.104L150.326 281.01C150.38 281.274 150.51 281.476 150.718 281.615C150.925 281.751 151.191 281.82 151.515 281.82C151.833 281.82 152.088 281.759 152.282 281.636C152.478 281.511 152.577 281.351 152.58 281.155C152.577 280.99 152.507 280.855 152.371 280.75C152.235 280.642 152.025 280.56 151.74 280.503L150.607 280.277C149.968 280.149 149.492 279.928 149.179 279.612C148.87 279.297 148.715 278.895 148.715 278.406C148.715 277.986 148.828 277.624 149.056 277.32C149.286 277.016 149.608 276.781 150.023 276.616C150.441 276.452 150.929 276.369 151.489 276.369C152.316 276.369 152.966 276.544 153.441 276.893C153.918 277.243 154.196 277.719 154.276 278.321ZM158.551 283.128C157.878 283.128 157.298 282.991 156.812 282.719C156.33 282.443 155.957 282.054 155.696 281.551C155.435 281.045 155.304 280.447 155.304 279.757C155.304 279.084 155.435 278.493 155.696 277.984C155.957 277.476 156.325 277.08 156.8 276.795C157.277 276.511 157.837 276.369 158.479 276.369C158.911 276.369 159.313 276.439 159.685 276.578C160.06 276.714 160.386 276.92 160.665 277.196C160.946 277.472 161.165 277.818 161.321 278.236C161.477 278.651 161.555 279.136 161.555 279.693V280.192H156.028V279.067H159.847C159.847 278.805 159.79 278.574 159.676 278.372C159.563 278.17 159.405 278.013 159.203 277.899C159.004 277.783 158.773 277.724 158.509 277.724C158.233 277.724 157.989 277.788 157.776 277.916C157.565 278.041 157.401 278.21 157.281 278.423C157.162 278.634 157.101 278.868 157.098 279.126V280.196C157.098 280.52 157.158 280.8 157.277 281.036C157.399 281.271 157.571 281.453 157.793 281.581C158.014 281.709 158.277 281.773 158.581 281.773C158.783 281.773 158.967 281.744 159.135 281.688C159.303 281.631 159.446 281.545 159.565 281.432C159.685 281.318 159.776 281.179 159.838 281.014L161.517 281.125C161.432 281.528 161.257 281.881 160.993 282.182C160.732 282.48 160.393 282.713 159.979 282.881C159.567 283.045 159.091 283.128 158.551 283.128Z" fill="white"/>
<g filter="url(#filter1_d_1917_4411)">
<circle cx="378" cy="195" r="50" fill="white"/>
<circle cx="378" cy="195" r="48.5" stroke="#1E47FF" stroke-width="3"/>
</g>
<path d="M370.513 176.818V203H364.977V182.072H364.824L358.828 185.831V180.922L365.31 176.818H370.513ZM386.298 203.358C384.491 203.358 382.88 203.026 381.466 202.361C380.059 201.696 378.943 200.78 378.116 199.612C377.289 198.445 376.859 197.107 376.825 195.598H382.194C382.254 196.612 382.68 197.435 383.473 198.065C384.265 198.696 385.207 199.011 386.298 199.011C387.167 199.011 387.934 198.82 388.599 198.436C389.272 198.044 389.797 197.503 390.172 196.812C390.555 196.114 390.747 195.312 390.747 194.409C390.747 193.489 390.551 192.679 390.159 191.98C389.775 191.281 389.243 190.736 388.561 190.344C387.879 189.952 387.099 189.751 386.221 189.743C385.454 189.743 384.708 189.901 383.984 190.216C383.268 190.531 382.71 190.962 382.309 191.507L377.387 190.625L378.627 176.818H394.633V181.344H383.191L382.514 187.902H382.667C383.127 187.254 383.822 186.717 384.751 186.291C385.68 185.865 386.72 185.652 387.87 185.652C389.447 185.652 390.853 186.023 392.089 186.764C393.325 187.506 394.301 188.524 395.017 189.82C395.733 191.107 396.086 192.589 396.078 194.268C396.086 196.033 395.677 197.601 394.85 198.973C394.032 200.337 392.886 201.411 391.412 202.195C389.946 202.97 388.241 203.358 386.298 203.358Z" fill="black"/>
<path d="M366.173 217H362.822V207.545H366.201C367.152 207.545 367.971 207.735 368.657 208.113C369.343 208.489 369.871 209.029 370.24 209.734C370.613 210.438 370.799 211.282 370.799 212.263C370.799 213.248 370.613 214.095 370.24 214.803C369.871 215.51 369.34 216.054 368.648 216.432C367.958 216.811 367.134 217 366.173 217ZM364.821 215.287H366.09C366.681 215.287 367.178 215.183 367.581 214.973C367.988 214.761 368.292 214.433 368.495 213.99C368.702 213.544 368.805 212.968 368.805 212.263C368.805 211.565 368.702 210.994 368.495 210.551C368.292 210.108 367.989 209.781 367.586 209.572C367.183 209.363 366.686 209.258 366.095 209.258H364.821V215.287ZM374.265 217.134C373.812 217.134 373.409 217.055 373.055 216.898C372.701 216.738 372.421 216.503 372.215 216.192C372.012 215.878 371.91 215.487 371.91 215.02C371.91 214.626 371.983 214.295 372.127 214.027C372.272 213.759 372.469 213.544 372.718 213.381C372.968 213.218 373.251 213.094 373.568 213.011C373.888 212.928 374.223 212.87 374.574 212.836C374.987 212.793 375.319 212.753 375.571 212.716C375.824 212.676 376.007 212.617 376.121 212.54C376.235 212.464 376.291 212.35 376.291 212.199V212.171C376.291 211.879 376.199 211.653 376.014 211.493C375.833 211.333 375.574 211.252 375.239 211.252C374.885 211.252 374.603 211.331 374.394 211.488C374.185 211.642 374.046 211.836 373.979 212.07L372.16 211.922C372.252 211.491 372.434 211.119 372.704 210.805C372.975 210.488 373.325 210.245 373.752 210.075C374.183 209.903 374.682 209.817 375.248 209.817C375.642 209.817 376.019 209.863 376.379 209.955C376.742 210.048 377.064 210.191 377.344 210.385C377.627 210.578 377.85 210.828 378.013 211.132C378.177 211.434 378.258 211.796 378.258 212.217V217H376.393V216.017H376.338C376.224 216.238 376.071 216.434 375.881 216.603C375.69 216.769 375.46 216.9 375.193 216.995C374.925 217.088 374.616 217.134 374.265 217.134ZM374.828 215.777C375.117 215.777 375.373 215.72 375.594 215.606C375.816 215.489 375.99 215.332 376.116 215.135C376.242 214.938 376.305 214.715 376.305 214.466V213.713C376.244 213.753 376.159 213.79 376.051 213.824C375.947 213.855 375.828 213.884 375.696 213.912C375.564 213.936 375.431 213.959 375.299 213.981C375.167 213.999 375.047 214.016 374.939 214.032C374.708 214.065 374.506 214.119 374.334 214.193C374.162 214.267 374.028 214.367 373.932 214.493C373.837 214.616 373.789 214.77 373.789 214.955C373.789 215.223 373.886 215.427 374.08 215.569C374.277 215.707 374.526 215.777 374.828 215.777ZM380.744 219.659C380.495 219.659 380.261 219.639 380.042 219.599C379.827 219.562 379.648 219.514 379.507 219.456L379.95 217.988C380.181 218.059 380.389 218.097 380.573 218.103C380.761 218.109 380.923 218.066 381.058 217.974C381.196 217.882 381.309 217.725 381.395 217.503L381.51 217.203L378.967 209.909H381.035L382.503 215.116H382.577L384.059 209.909H386.141L383.385 217.766C383.252 218.148 383.072 218.48 382.845 218.763C382.62 219.05 382.335 219.27 381.991 219.424C381.646 219.581 381.23 219.659 380.744 219.659ZM393.047 211.931L391.247 212.042C391.216 211.888 391.15 211.75 391.048 211.626C390.946 211.5 390.813 211.4 390.646 211.326C390.483 211.249 390.288 211.211 390.06 211.211C389.755 211.211 389.498 211.276 389.289 211.405C389.08 211.531 388.975 211.7 388.975 211.913C388.975 212.082 389.043 212.225 389.178 212.342C389.314 212.459 389.546 212.553 389.875 212.624L391.159 212.882C391.848 213.024 392.362 213.251 392.701 213.565C393.039 213.879 393.209 214.292 393.209 214.803C393.209 215.267 393.072 215.675 392.798 216.026C392.527 216.377 392.154 216.651 391.68 216.848C391.21 217.042 390.666 217.138 390.051 217.138C389.112 217.138 388.364 216.943 387.807 216.552C387.253 216.158 386.929 215.623 386.833 214.946L388.767 214.844C388.826 215.13 388.968 215.349 389.192 215.5C389.417 215.647 389.705 215.721 390.055 215.721C390.4 215.721 390.677 215.655 390.886 215.523C391.099 215.387 391.207 215.213 391.21 215.001C391.207 214.823 391.131 214.676 390.983 214.562C390.836 214.446 390.608 214.356 390.3 214.295L389.072 214.05C388.38 213.912 387.864 213.672 387.526 213.33C387.19 212.988 387.022 212.553 387.022 212.023C387.022 211.568 387.146 211.176 387.392 210.846C387.641 210.517 387.99 210.263 388.44 210.085C388.892 209.906 389.421 209.817 390.028 209.817C390.923 209.817 391.628 210.006 392.142 210.385C392.659 210.763 392.961 211.279 393.047 211.931Z" fill="#1E47FF"/>
<g filter="url(#filter2_d_1917_4411)">
<rect x="269" y="307" width="152" height="48" rx="10" fill="#1E47FF"/>
</g>
<path d="M313.64 335H311.333L314.848 324.818H317.622L321.132 335H318.825L316.275 327.145H316.195L313.64 335ZM313.496 330.998H318.945V332.678H313.496V330.998ZM322.318 337.864V327.364H324.406V328.646H324.5C324.593 328.441 324.727 328.232 324.903 328.02C325.082 327.804 325.314 327.625 325.599 327.483C325.887 327.337 326.245 327.264 326.673 327.264C327.23 327.264 327.743 327.41 328.214 327.702C328.685 327.99 329.061 328.426 329.343 329.009C329.624 329.589 329.765 330.317 329.765 331.192C329.765 332.044 329.628 332.763 329.353 333.349C329.081 333.933 328.71 334.375 328.239 334.677C327.772 334.975 327.248 335.124 326.668 335.124C326.257 335.124 325.907 335.056 325.619 334.92C325.334 334.785 325.1 334.614 324.918 334.408C324.736 334.2 324.596 333.989 324.5 333.777H324.436V337.864H322.318ZM324.391 331.182C324.391 331.636 324.454 332.032 324.58 332.37C324.706 332.708 324.888 332.972 325.127 333.161C325.365 333.346 325.655 333.439 325.997 333.439C326.342 333.439 326.633 333.344 326.872 333.156C327.11 332.963 327.291 332.698 327.414 332.36C327.54 332.019 327.603 331.626 327.603 331.182C327.603 330.741 327.541 330.353 327.419 330.018C327.296 329.684 327.115 329.422 326.877 329.233C326.638 329.044 326.345 328.95 325.997 328.95C325.652 328.95 325.36 329.041 325.122 329.223C324.886 329.405 324.706 329.664 324.58 329.999C324.454 330.333 324.391 330.728 324.391 331.182ZM331.177 337.864V327.364H333.265V328.646H333.36C333.453 328.441 333.587 328.232 333.762 328.02C333.941 327.804 334.173 327.625 334.458 327.483C334.747 327.337 335.105 327.264 335.532 327.264C336.089 327.264 336.603 327.41 337.074 327.702C337.544 327.99 337.92 328.426 338.202 329.009C338.484 329.589 338.625 330.317 338.625 331.192C338.625 332.044 338.487 332.763 338.212 333.349C337.94 333.933 337.569 334.375 337.098 334.677C336.631 334.975 336.107 335.124 335.527 335.124C335.116 335.124 334.767 335.056 334.478 334.92C334.193 334.785 333.96 334.614 333.777 334.408C333.595 334.2 333.456 333.989 333.36 333.777H333.295V337.864H331.177ZM333.25 331.182C333.25 331.636 333.313 332.032 333.439 332.37C333.565 332.708 333.748 332.972 333.986 333.161C334.225 333.346 334.515 333.439 334.856 333.439C335.201 333.439 335.493 333.344 335.731 333.156C335.97 332.963 336.15 332.698 336.273 332.36C336.399 332.019 336.462 331.626 336.462 331.182C336.462 330.741 336.401 330.353 336.278 330.018C336.155 329.684 335.975 329.422 335.736 329.233C335.498 329.044 335.204 328.95 334.856 328.95C334.511 328.95 334.22 329.041 333.981 329.223C333.746 329.405 333.565 329.664 333.439 329.999C333.313 330.333 333.25 330.728 333.25 331.182ZM342.154 324.818V335H340.037V324.818H342.154ZM345.159 337.864C344.89 337.864 344.638 337.842 344.403 337.799C344.171 337.759 343.979 337.708 343.826 337.645L344.303 336.064C344.552 336.14 344.776 336.182 344.975 336.188C345.177 336.195 345.351 336.148 345.497 336.049C345.646 335.95 345.767 335.781 345.86 335.542L345.984 335.219L343.244 327.364H345.472L347.053 332.972H347.132L348.728 327.364H350.97L348.002 335.825C347.86 336.236 347.666 336.594 347.421 336.899C347.179 337.207 346.872 337.444 346.501 337.61C346.13 337.779 345.682 337.864 345.159 337.864ZM363.85 324.818V335H361.991L357.561 328.592H357.487V335H355.334V324.818H357.223L361.618 331.222H361.708V324.818H363.85ZM369.04 335.149C368.267 335.149 367.599 334.985 367.036 334.657C366.476 334.326 366.043 333.865 365.738 333.275C365.434 332.682 365.281 331.994 365.281 331.212C365.281 330.423 365.434 329.733 365.738 329.143C366.043 328.55 366.476 328.089 367.036 327.761C367.599 327.43 368.267 327.264 369.04 327.264C369.812 327.264 370.478 327.43 371.038 327.761C371.602 328.089 372.036 328.55 372.341 329.143C372.646 329.733 372.798 330.423 372.798 331.212C372.798 331.994 372.646 332.682 372.341 333.275C372.036 333.865 371.602 334.326 371.038 334.657C370.478 334.985 369.812 335.149 369.04 335.149ZM369.05 333.509C369.401 333.509 369.694 333.409 369.93 333.21C370.165 333.008 370.342 332.733 370.461 332.385C370.584 332.037 370.645 331.641 370.645 331.197C370.645 330.753 370.584 330.357 370.461 330.009C370.342 329.661 370.165 329.385 369.93 329.183C369.694 328.981 369.401 328.88 369.05 328.88C368.695 328.88 368.397 328.981 368.155 329.183C367.916 329.385 367.735 329.661 367.613 330.009C367.493 330.357 367.434 330.753 367.434 331.197C367.434 331.641 367.493 332.037 367.613 332.385C367.735 332.733 367.916 333.008 368.155 333.21C368.397 333.409 368.695 333.509 369.05 333.509ZM375.49 335L373.412 327.364H375.555L376.738 332.494H376.808L378.041 327.364H380.144L381.396 332.464H381.461L382.624 327.364H384.762L382.689 335H380.447L379.134 330.197H379.04L377.727 335H375.49Z" fill="white"/>
<defs>
<filter id="filter0_d_1917_4411" x="0" y="0" width="295.75" height="355.065" filterUnits="userSpaceOnUse" color-interpolation-filters="sRGB">
<feFlood flood-opacity="0" result="BackgroundImageFix"/>
<feColorMatrix in="SourceAlpha" type="matrix" values="0 0 0 0 0 0 0 0 0 0 0 0 0 0 0 0 0 0 127 0" result="hardAlpha"/>
<feOffset dy="4"/>
<feGaussianBlur stdDeviation="20"/>
<feComposite in2="hardAlpha" operator="out"/>
<feColorMatrix type="matrix" values="0 0 0 0 0 0 0 0 0 0 0 0 0 0 0 0 0 0 0.25 0"/>
<feBlend mode="normal" in2="BackgroundImageFix" result="effect1_dropShadow_1917_4411"/>
<feBlend mode="normal" in="SourceGraphic" in2="effect1_dropShadow_1917_4411" result="shape"/>
</filter>
<filter id="filter1_d_1917_4411" x="288" y="109" width="180" height="180" filterUnits="userSpaceOnUse" color-interpolation-filters="sRGB">
<feFlood flood-opacity="0" result="BackgroundImageFix"/>
<feColorMatrix in="SourceAlpha" type="matrix" values="0 0 0 0 0 0 0 0 0 0 0 0 0 0 0 0 0 0 127 0" result="hardAlpha"/>
<feOffset dy="4"/>
<feGaussianBlur stdDeviation="20"/>
<feComposite in2="hardAlpha" operator="out"/>
<feColorMatrix type="matrix" values="0 0 0 0 0 0 0 0 0 0 0 0 0 0 0 0 0 0 0.25 0"/>
<feBlend mode="normal" in2="BackgroundImageFix" result="effect1_dropShadow_1917_4411"/>
<feBlend mode="normal" in="SourceGraphic" in2="effect1_dropShadow_1917_4411" result="shape"/>
</filter>
<filter id="filter2_d_1917_4411" x="229" y="271" width="232" height="128" filterUnits="userSpaceOnUse" color-interpolation-filters="sRGB">
<feFlood flood-opacity="0" result="BackgroundImageFix"/>
<feColorMatrix in="SourceAlpha" type="matrix" values="0 0 0 0 0 0 0 0 0 0 0 0 0 0 0 0 0 0 127 0" result="hardAlpha"/>
<feOffset dy="4"/>
<feGaussianBlur stdDeviation="20"/>
<feComposite in2="hardAlpha" operator="out"/>
<feColorMatrix type="matrix" values="0 0 0 0 0 0 0 0 0 0 0 0 0 0 0 0 0 0 0.25 0"/>
<feBlend mode="normal" in2="BackgroundImageFix" result="effect1_dropShadow_1917_4411"/>
<feBlend mode="normal" in="SourceGraphic" in2="effect1_dropShadow_1917_4411" result="shape"/>
</filter>
<linearGradient id="paint0_linear_1917_4411" x1="232.5" y1="50" x2="232.5" y2="391" gradientUnits="userSpaceOnUse">
<stop offset="0.197917" stop-color="#1E47FF"/>
<stop offset="1" stop-color="#0F9AFF" stop-opacity="0.79"/>
</linearGradient>
</defs>
</svg>
