<svg width="613" height="455" viewBox="0 0 613 455" fill="none" xmlns="http://www.w3.org/2000/svg">
<g filter="url(#filter0_d_1917_4413)">
<path d="M251.479 172.014C236.24 202.95 232.284 238.347 240.238 272.599C248.193 306.851 267.603 338.001 295.395 361.118C323.187 384.235 357.773 397.997 393.678 400.226C429.582 402.454 464.753 393.022 493.622 373.422C522.49 353.823 543.407 325.175 553.061 292.016C562.714 258.857 560.552 223.081 546.918 190.352C533.283 157.623 508.954 129.812 477.784 111.322C446.614 92.8322 410.382 84.7196 374.827 88.269L379.624 121.054C407.695 118.251 436.298 124.656 460.907 139.254C485.515 153.851 504.722 175.808 515.486 201.646C526.251 227.485 527.957 255.729 520.336 281.908C512.715 308.086 496.202 330.703 473.41 346.176C450.619 361.65 422.852 369.097 394.507 367.337C366.161 365.578 338.856 354.713 316.914 336.462C294.973 318.212 279.649 293.619 273.369 266.578C267.089 239.537 270.212 211.592 282.243 187.168L251.479 172.014Z" fill="url(#paint0_linear_1917_4413)" shape-rendering="crispEdges"/>
</g>
<g filter="url(#filter1_d_1917_4413)">
<g filter="url(#filter2_d_1917_4413)">
<path d="M40 51C40 42.7157 46.7157 36 55 36H450C458.284 36 465 42.7157 465 51V291C465 299.284 458.284 306 450 306H55C46.7157 306 40 299.284 40 291V51Z" fill="white"/>
</g>
<path d="M77.2642 83V68.4545H83.0028C84.1013 68.4545 85.0388 68.651 85.8153 69.044C86.5966 69.4323 87.1908 69.9839 87.598 70.6989C88.0099 71.4091 88.2159 72.2448 88.2159 73.206C88.2159 74.1719 88.0076 75.0028 87.5909 75.6989C87.1742 76.3902 86.5705 76.9205 85.7798 77.2898C84.9938 77.6591 84.0421 77.8438 82.9247 77.8438H79.0824V75.3722H82.4276C83.0147 75.3722 83.5024 75.2917 83.8906 75.1307C84.2789 74.9697 84.5677 74.7282 84.7571 74.4062C84.9512 74.0843 85.0483 73.6842 85.0483 73.206C85.0483 72.723 84.9512 72.3158 84.7571 71.9844C84.5677 71.6529 84.2765 71.402 83.8835 71.2315C83.4953 71.0563 83.0052 70.9688 82.4134 70.9688H80.3395V83H77.2642ZM85.1193 76.3807L88.7344 83H85.3395L81.8026 76.3807H85.1193ZM95.1282 83.2131C94.006 83.2131 93.0401 82.9858 92.2305 82.5312C91.4255 82.072 90.8053 81.4233 90.3697 80.5852C89.9341 79.7424 89.7163 78.7457 89.7163 77.5952C89.7163 76.473 89.9341 75.4882 90.3697 74.6406C90.8053 73.7931 91.4184 73.1326 92.2092 72.6591C93.0046 72.1856 93.9374 71.9489 95.0075 71.9489C95.7272 71.9489 96.3971 72.0649 97.0174 72.2969C97.6424 72.5241 98.1869 72.8674 98.6509 73.3267C99.1197 73.786 99.4843 74.3636 99.7447 75.0597C100.005 75.7509 100.135 76.5606 100.135 77.4886V78.3196H90.9237V76.4446H97.2873C97.2873 76.009 97.1926 75.6231 97.0032 75.2869C96.8138 74.9508 96.551 74.688 96.2148 74.4986C95.8834 74.3045 95.4975 74.2074 95.0572 74.2074C94.5979 74.2074 94.1907 74.3139 93.8356 74.527C93.4852 74.7353 93.2106 75.017 93.0117 75.3722C92.8129 75.7225 92.7111 76.1132 92.7063 76.544V78.3267C92.7063 78.8665 92.8058 79.3329 93.0046 79.7259C93.2082 80.1188 93.4947 80.4219 93.864 80.6349C94.2333 80.848 94.6713 80.9545 95.1779 80.9545C95.5141 80.9545 95.8219 80.9072 96.1012 80.8125C96.3806 80.7178 96.6197 80.5758 96.8185 80.3864C97.0174 80.197 97.1689 79.965 97.2731 79.6903L100.071 79.875C99.9293 80.5473 99.6381 81.1345 99.1978 81.6364C98.7622 82.1335 98.1987 82.5218 97.5075 82.8011C96.8209 83.0758 96.0278 83.2131 95.1282 83.2131ZM111.987 72.0909L108.173 83H104.764L100.95 72.0909H104.146L106.412 79.8963H106.526L108.784 72.0909H111.987ZM118.156 83.2131C117.033 83.2131 116.067 82.9858 115.258 82.5312C114.453 82.072 113.833 81.4233 113.397 80.5852C112.961 79.7424 112.744 78.7457 112.744 77.5952C112.744 76.473 112.961 75.4882 113.397 74.6406C113.833 73.7931 114.446 73.1326 115.237 72.6591C116.032 72.1856 116.965 71.9489 118.035 71.9489C118.754 71.9489 119.424 72.0649 120.045 72.2969C120.67 72.5241 121.214 72.8674 121.678 73.3267C122.147 73.786 122.512 74.3636 122.772 75.0597C123.032 75.7509 123.163 76.5606 123.163 77.4886V78.3196H113.951V76.4446H120.315C120.315 76.009 120.22 75.6231 120.031 75.2869C119.841 74.9508 119.578 74.688 119.242 74.4986C118.911 74.3045 118.525 74.2074 118.085 74.2074C117.625 74.2074 117.218 74.3139 116.863 74.527C116.513 74.7353 116.238 75.017 116.039 75.3722C115.84 75.7225 115.738 76.1132 115.734 76.544V78.3267C115.734 78.8665 115.833 79.3329 116.032 79.7259C116.236 80.1188 116.522 80.4219 116.891 80.6349C117.261 80.848 117.699 80.9545 118.205 80.9545C118.541 80.9545 118.849 80.9072 119.129 80.8125C119.408 80.7178 119.647 80.5758 119.846 80.3864C120.045 80.197 120.196 79.965 120.3 79.6903L123.099 79.875C122.957 80.5473 122.665 81.1345 122.225 81.6364C121.79 82.1335 121.226 82.5218 120.535 82.8011C119.848 83.0758 119.055 83.2131 118.156 83.2131ZM128.163 76.6932V83H125.137V72.0909H128.021V74.0156H128.148C128.39 73.3812 128.795 72.8793 129.363 72.5099C129.931 72.1359 130.62 71.9489 131.43 71.9489C132.187 71.9489 132.848 72.1146 133.411 72.446C133.975 72.7775 134.413 73.2509 134.725 73.8665C135.038 74.4773 135.194 75.2064 135.194 76.054V83H132.168V76.5938C132.173 75.9261 132.003 75.4053 131.657 75.0312C131.311 74.6525 130.835 74.4631 130.229 74.4631C129.822 74.4631 129.462 74.5507 129.15 74.7259C128.842 74.901 128.601 75.1567 128.425 75.4929C128.255 75.8243 128.167 76.2244 128.163 76.6932ZM144.574 78.3551V72.0909H147.6V83H144.695V81.0185H144.581C144.335 81.6577 143.926 82.1714 143.353 82.5597C142.784 82.9479 142.091 83.142 141.272 83.142C140.542 83.142 139.901 82.9763 139.347 82.6449C138.793 82.3134 138.36 81.8423 138.047 81.2315C137.739 80.6207 137.583 79.8892 137.578 79.0369V72.0909H140.604V78.4972C140.609 79.1411 140.782 79.6501 141.123 80.0241C141.463 80.3982 141.92 80.5852 142.493 80.5852C142.858 80.5852 143.199 80.5024 143.516 80.3366C143.833 80.1662 144.089 79.9152 144.283 79.5838C144.482 79.2524 144.579 78.8428 144.574 78.3551ZM154.991 83.2131C153.869 83.2131 152.903 82.9858 152.094 82.5312C151.289 82.072 150.669 81.4233 150.233 80.5852C149.797 79.7424 149.58 78.7457 149.58 77.5952C149.58 76.473 149.797 75.4882 150.233 74.6406C150.669 73.7931 151.282 73.1326 152.072 72.6591C152.868 72.1856 153.801 71.9489 154.871 71.9489C155.59 71.9489 156.26 72.0649 156.881 72.2969C157.506 72.5241 158.05 72.8674 158.514 73.3267C158.983 73.786 159.348 74.3636 159.608 75.0597C159.868 75.7509 159.999 76.5606 159.999 77.4886V78.3196H150.787V76.4446H157.151C157.151 76.009 157.056 75.6231 156.866 75.2869C156.677 74.9508 156.414 74.688 156.078 74.4986C155.747 74.3045 155.361 74.2074 154.92 74.2074C154.461 74.2074 154.054 74.3139 153.699 74.527C153.348 74.7353 153.074 75.017 152.875 75.3722C152.676 75.7225 152.574 76.1132 152.57 76.544V78.3267C152.57 78.8665 152.669 79.3329 152.868 79.7259C153.071 80.1188 153.358 80.4219 153.727 80.6349C154.097 80.848 154.535 80.9545 155.041 80.9545C155.377 80.9545 155.685 80.9072 155.964 80.8125C156.244 80.7178 156.483 80.5758 156.682 80.3864C156.881 80.197 157.032 79.965 157.136 79.6903L159.935 79.875C159.793 80.5473 159.501 81.1345 159.061 81.6364C158.625 82.1335 158.062 82.5218 157.371 82.8011C156.684 83.0758 155.891 83.2131 154.991 83.2131Z" fill="#30323E"/>
<path d="M360 69.5H421C425.142 69.5 428.5 72.8579 428.5 77V93C428.5 97.1421 425.142 100.5 421 100.5H360C355.858 100.5 352.5 97.1421 352.5 93V77C352.5 72.8579 355.858 69.5 360 69.5Z" stroke="black" stroke-opacity="0.2"/>
<path d="M365.905 90V88.6676L369.44 85.2024C369.778 84.861 370.059 84.5578 370.285 84.2926C370.51 84.0275 370.679 83.7706 370.792 83.522C370.905 83.2734 370.961 83.0083 370.961 82.7266C370.961 82.4051 370.888 82.13 370.742 81.9013C370.596 81.6693 370.396 81.4903 370.141 81.3643C369.885 81.2384 369.595 81.1754 369.271 81.1754C368.936 81.1754 368.643 81.245 368.391 81.3842C368.139 81.5201 367.943 81.714 367.804 81.9659C367.668 82.2178 367.6 82.5178 367.6 82.8658H365.845C365.845 82.2195 365.993 81.6577 366.288 81.1804C366.583 80.7031 366.989 80.3336 367.506 80.0717C368.026 79.8099 368.623 79.679 369.295 79.679C369.978 79.679 370.578 79.8066 371.095 80.0618C371.612 80.317 372.013 80.6667 372.298 81.1108C372.587 81.5549 372.731 82.062 372.731 82.6321C372.731 83.0133 372.658 83.3878 372.512 83.7557C372.366 84.1236 372.109 84.5312 371.741 84.9787C371.377 85.4261 370.865 85.968 370.205 86.6044L368.45 88.3892V88.4588H372.885V90H365.905ZM378.364 90.1939C377.545 90.1939 376.842 89.9867 376.256 89.5724C375.672 89.1548 375.223 88.5533 374.908 87.7678C374.597 86.9789 374.441 86.0294 374.441 84.919C374.444 83.8087 374.602 82.8641 374.913 82.0852C375.228 81.303 375.677 80.7064 376.261 80.2955C376.847 79.8845 377.548 79.679 378.364 79.679C379.179 79.679 379.88 79.8845 380.467 80.2955C381.053 80.7064 381.502 81.303 381.814 82.0852C382.129 82.8674 382.286 83.812 382.286 84.919C382.286 86.0327 382.129 86.9839 381.814 87.7727C381.502 88.5582 381.053 89.1581 380.467 89.5724C379.883 89.9867 379.182 90.1939 378.364 90.1939ZM378.364 88.6378C379 88.6378 379.502 88.3246 379.87 87.6982C380.241 87.0684 380.427 86.142 380.427 84.919C380.427 84.1103 380.342 83.4309 380.173 82.8807C380.004 82.3305 379.766 81.9162 379.457 81.6378C379.149 81.3561 378.785 81.2152 378.364 81.2152C377.731 81.2152 377.23 81.5301 376.862 82.1598C376.494 82.7862 376.309 83.706 376.305 84.919C376.302 85.7311 376.383 86.4138 376.549 86.9673C376.718 87.5208 376.957 87.9384 377.265 88.2202C377.573 88.4986 377.939 88.6378 378.364 88.6378ZM383.938 90V88.6676L387.473 85.2024C387.811 84.861 388.093 84.5578 388.318 84.2926C388.543 84.0275 388.712 83.7706 388.825 83.522C388.938 83.2734 388.994 83.0083 388.994 82.7266C388.994 82.4051 388.921 82.13 388.775 81.9013C388.63 81.6693 388.429 81.4903 388.174 81.3643C387.919 81.2384 387.629 81.1754 387.304 81.1754C386.969 81.1754 386.676 81.245 386.424 81.3842C386.172 81.5201 385.976 81.714 385.837 81.9659C385.701 82.2178 385.633 82.5178 385.633 82.8658H383.878C383.878 82.2195 384.026 81.6577 384.321 81.1804C384.616 80.7031 385.022 80.3336 385.539 80.0717C386.059 79.8099 386.656 79.679 387.329 79.679C388.011 79.679 388.611 79.8066 389.128 80.0618C389.645 80.317 390.046 80.6667 390.331 81.1108C390.62 81.5549 390.764 82.062 390.764 82.6321C390.764 83.0133 390.691 83.3878 390.545 83.7557C390.399 84.1236 390.143 84.5312 389.775 84.9787C389.41 85.4261 388.898 85.968 388.238 86.6044L386.483 88.3892V88.4588H390.918V90H383.938ZM396.775 79.8182V90H394.93V81.6129H394.871L392.489 83.1342V81.4439L395.02 79.8182H396.775Z" fill="black" fill-opacity="0.5"/>
<path d="M375 64.5L380 69.5L385 64.5" stroke="#808080" stroke-width="2" stroke-linecap="round" stroke-linejoin="round"/>
<path d="M59.1676 259.17H60.4631L61.375 260.359L61.8054 260.888L63.2585 262.784H61.9119L60.9403 261.518L60.608 261.058L59.1676 259.17ZM63.5398 257.636C63.5398 258.568 63.3693 259.369 63.0284 260.04C62.6875 260.707 62.2202 261.222 61.6264 261.582C61.0355 261.94 60.3636 262.119 59.6108 262.119C58.8551 262.119 58.1804 261.94 57.5866 261.582C56.9957 261.222 56.5298 260.706 56.1889 260.036C55.848 259.365 55.6776 258.565 55.6776 257.636C55.6776 256.705 55.848 255.905 56.1889 255.237C56.5298 254.567 56.9957 254.053 57.5866 253.695C58.1804 253.334 58.8551 253.153 59.6108 253.153C60.3636 253.153 61.0355 253.334 61.6264 253.695C62.2202 254.053 62.6875 254.567 63.0284 255.237C63.3693 255.905 63.5398 256.705 63.5398 257.636ZM62.2358 257.636C62.2358 256.926 62.1207 256.328 61.8906 255.842C61.6634 255.354 61.3509 254.984 60.9531 254.734C60.5582 254.482 60.1108 254.355 59.6108 254.355C59.108 254.355 58.6591 254.482 58.2642 254.734C57.8693 254.984 57.5568 255.354 57.3267 255.842C57.0994 256.328 56.9858 256.926 56.9858 257.636C56.9858 258.347 57.0994 258.946 57.3267 259.435C57.5568 259.92 57.8693 260.29 58.2642 260.543C58.6591 260.793 59.108 260.918 59.6108 260.918C60.1108 260.918 60.5582 260.793 60.9531 260.543C61.3509 260.29 61.6634 259.92 61.8906 259.435C62.1207 258.946 62.2358 258.347 62.2358 257.636ZM68.3732 253.273V262H67.0522V254.594H67.0011L64.913 255.957V254.696L67.0906 253.273H68.3732Z" fill="#787F9D"/>
<path d="M166.168 259.17H167.463L168.375 260.359L168.805 260.888L170.259 262.784H168.912L167.94 261.518L167.608 261.058L166.168 259.17ZM170.54 257.636C170.54 258.568 170.369 259.369 170.028 260.04C169.688 260.707 169.22 261.222 168.626 261.582C168.036 261.94 167.364 262.119 166.611 262.119C165.855 262.119 165.18 261.94 164.587 261.582C163.996 261.222 163.53 260.706 163.189 260.036C162.848 259.365 162.678 258.565 162.678 257.636C162.678 256.705 162.848 255.905 163.189 255.237C163.53 254.567 163.996 254.053 164.587 253.695C165.18 253.334 165.855 253.153 166.611 253.153C167.364 253.153 168.036 253.334 168.626 253.695C169.22 254.053 169.688 254.567 170.028 255.237C170.369 255.905 170.54 256.705 170.54 257.636ZM169.236 257.636C169.236 256.926 169.121 256.328 168.891 255.842C168.663 255.354 168.351 254.984 167.953 254.734C167.558 254.482 167.111 254.355 166.611 254.355C166.108 254.355 165.659 254.482 165.264 254.734C164.869 254.984 164.557 255.354 164.327 255.842C164.099 256.328 163.986 256.926 163.986 257.636C163.986 258.347 164.099 258.946 164.327 259.435C164.557 259.92 164.869 260.29 165.264 260.543C165.659 260.793 166.108 260.918 166.611 260.918C167.111 260.918 167.558 260.793 167.953 260.543C168.351 260.29 168.663 259.92 168.891 259.435C169.121 258.946 169.236 258.347 169.236 257.636ZM172.062 262V261.045L175.015 257.986C175.331 257.653 175.591 257.362 175.795 257.112C176.002 256.859 176.157 256.619 176.26 256.392C176.362 256.165 176.413 255.923 176.413 255.668C176.413 255.378 176.345 255.128 176.208 254.918C176.072 254.705 175.886 254.541 175.65 254.428C175.414 254.311 175.149 254.253 174.853 254.253C174.541 254.253 174.268 254.317 174.035 254.445C173.802 254.572 173.623 254.753 173.498 254.986C173.373 255.219 173.311 255.491 173.311 255.804H172.054C172.054 255.273 172.176 254.808 172.42 254.411C172.664 254.013 173 253.705 173.426 253.486C173.852 253.264 174.336 253.153 174.879 253.153C175.427 253.153 175.91 253.263 176.328 253.482C176.748 253.697 177.076 253.993 177.312 254.368C177.548 254.74 177.666 255.161 177.666 255.629C177.666 255.953 177.605 256.27 177.483 256.58C177.363 256.889 177.154 257.234 176.856 257.615C176.558 257.993 176.143 258.452 175.612 258.991L173.877 260.807V260.871H177.806V262H172.062Z" fill="#787F9D"/>
<path d="M275.168 259.17H276.463L277.375 260.359L277.805 260.888L279.259 262.784H277.912L276.94 261.518L276.608 261.058L275.168 259.17ZM279.54 257.636C279.54 258.568 279.369 259.369 279.028 260.04C278.688 260.707 278.22 261.222 277.626 261.582C277.036 261.94 276.364 262.119 275.611 262.119C274.855 262.119 274.18 261.94 273.587 261.582C272.996 261.222 272.53 260.706 272.189 260.036C271.848 259.365 271.678 258.565 271.678 257.636C271.678 256.705 271.848 255.905 272.189 255.237C272.53 254.567 272.996 254.053 273.587 253.695C274.18 253.334 274.855 253.153 275.611 253.153C276.364 253.153 277.036 253.334 277.626 253.695C278.22 254.053 278.688 254.567 279.028 255.237C279.369 255.905 279.54 256.705 279.54 257.636ZM278.236 257.636C278.236 256.926 278.121 256.328 277.891 255.842C277.663 255.354 277.351 254.984 276.953 254.734C276.558 254.482 276.111 254.355 275.611 254.355C275.108 254.355 274.659 254.482 274.264 254.734C273.869 254.984 273.557 255.354 273.327 255.842C273.099 256.328 272.986 256.926 272.986 257.636C272.986 258.347 273.099 258.946 273.327 259.435C273.557 259.92 273.869 260.29 274.264 260.543C274.659 260.793 275.108 260.918 275.611 260.918C276.111 260.918 276.558 260.793 276.953 260.543C277.351 260.29 277.663 259.92 277.891 259.435C278.121 258.946 278.236 258.347 278.236 257.636ZM284.1 262.119C283.515 262.119 282.993 262.018 282.532 261.817C282.075 261.615 281.713 261.335 281.446 260.977C281.181 260.616 281.039 260.199 281.02 259.724H282.358C282.375 259.983 282.461 260.207 282.618 260.398C282.777 260.585 282.984 260.73 283.24 260.832C283.495 260.935 283.779 260.986 284.092 260.986C284.436 260.986 284.74 260.926 285.004 260.807C285.271 260.687 285.48 260.521 285.63 260.308C285.781 260.092 285.856 259.844 285.856 259.562C285.856 259.27 285.781 259.013 285.63 258.791C285.483 258.567 285.265 258.391 284.978 258.263C284.694 258.135 284.35 258.071 283.947 258.071H283.21V256.997H283.947C284.271 256.997 284.555 256.939 284.799 256.822C285.047 256.706 285.24 256.544 285.379 256.337C285.518 256.126 285.588 255.881 285.588 255.599C285.588 255.33 285.527 255.095 285.404 254.896C285.285 254.695 285.115 254.537 284.893 254.423C284.674 254.31 284.416 254.253 284.118 254.253C283.833 254.253 283.568 254.305 283.321 254.411C283.076 254.513 282.877 254.661 282.724 254.854C282.571 255.044 282.488 255.273 282.477 255.54H281.203C281.217 255.068 281.356 254.653 281.62 254.295C281.887 253.937 282.24 253.658 282.677 253.456C283.115 253.254 283.6 253.153 284.135 253.153C284.694 253.153 285.177 253.263 285.583 253.482C285.993 253.697 286.308 253.986 286.529 254.347C286.754 254.707 286.865 255.102 286.862 255.531C286.865 256.02 286.728 256.435 286.453 256.776C286.18 257.116 285.816 257.345 285.362 257.462V257.53C285.941 257.618 286.39 257.848 286.708 258.22C287.029 258.592 287.189 259.054 287.186 259.605C287.189 260.085 287.055 260.516 286.785 260.896C286.518 261.277 286.153 261.577 285.69 261.795C285.227 262.011 284.697 262.119 284.1 262.119Z" fill="#787F9D"/>
<path d="M384.168 259.17H385.463L386.375 260.359L386.805 260.888L388.259 262.784H386.912L385.94 261.518L385.608 261.058L384.168 259.17ZM388.54 257.636C388.54 258.568 388.369 259.369 388.028 260.04C387.688 260.707 387.22 261.222 386.626 261.582C386.036 261.94 385.364 262.119 384.611 262.119C383.855 262.119 383.18 261.94 382.587 261.582C381.996 261.222 381.53 260.706 381.189 260.036C380.848 259.365 380.678 258.565 380.678 257.636C380.678 256.705 380.848 255.905 381.189 255.237C381.53 254.567 381.996 254.053 382.587 253.695C383.18 253.334 383.855 253.153 384.611 253.153C385.364 253.153 386.036 253.334 386.626 253.695C387.22 254.053 387.688 254.567 388.028 255.237C388.369 255.905 388.54 256.705 388.54 257.636ZM387.236 257.636C387.236 256.926 387.121 256.328 386.891 255.842C386.663 255.354 386.351 254.984 385.953 254.734C385.558 254.482 385.111 254.355 384.611 254.355C384.108 254.355 383.659 254.482 383.264 254.734C382.869 254.984 382.557 255.354 382.327 255.842C382.099 256.328 381.986 256.926 381.986 257.636C381.986 258.347 382.099 258.946 382.327 259.435C382.557 259.92 382.869 260.29 383.264 260.543C383.659 260.793 384.108 260.918 384.611 260.918C385.111 260.918 385.558 260.793 385.953 260.543C386.351 260.29 386.663 259.92 386.891 259.435C387.121 258.946 387.236 258.347 387.236 257.636ZM389.879 260.295V259.23L393.65 253.273H394.49V254.841H393.957L391.26 259.111V259.179H396.429V260.295H389.879ZM394.017 262V259.972L394.025 259.486V253.273H395.274V262H394.017Z" fill="#787F9D"/>
<path d="M79.5 139L76.6132 144L82.3868 144L79.5 139ZM79 143.5L79 263L80 263L80 143.5L79 143.5Z" fill="#B8B8B8"/>
<path d="M398 244.5L393 241.613V247.387L398 244.5ZM48 245L393.5 245V244L48 244V245Z" fill="#B8B8B8"/>
<line x1="80" y1="153.75" x2="429" y2="153.75" stroke="#B8B8B8" stroke-width="0.5" stroke-dasharray="4 4"/>
<line x1="78" y1="189.75" x2="427" y2="189.75" stroke="#B8B8B8" stroke-width="0.5" stroke-dasharray="4 4"/>
<line x1="80" y1="225.75" x2="429" y2="225.75" stroke="#B8B8B8" stroke-width="0.5" stroke-dasharray="4 4"/>
<path d="M77.6435 113V94.0909H85.1037C86.5317 94.0909 87.7505 94.3464 88.7599 94.8572C89.7756 95.362 90.5481 96.0791 91.0774 97.0085C91.6129 97.9318 91.8807 99.0182 91.8807 100.268C91.8807 101.523 91.6098 102.604 91.0682 103.509C90.5265 104.407 89.7417 105.097 88.7138 105.577C87.692 106.057 86.4548 106.297 85.0021 106.297H80.0071V103.084H84.3558C85.1191 103.084 85.7531 102.979 86.2578 102.77C86.7625 102.561 87.138 102.247 87.3842 101.828C87.6366 101.41 87.7628 100.889 87.7628 100.268C87.7628 99.6399 87.6366 99.1106 87.3842 98.6797C87.138 98.2488 86.7595 97.9226 86.2486 97.701C85.7438 97.4732 85.1068 97.3594 84.3374 97.3594H81.6413V113H77.6435ZM87.8551 104.395L92.5547 113H88.1413L83.5433 104.395H87.8551ZM106.432 102.862L102.831 103.084C102.769 102.776 102.637 102.499 102.434 102.253C102.231 102 101.963 101.8 101.631 101.653C101.304 101.499 100.914 101.422 100.458 101.422C99.8487 101.422 99.3348 101.551 98.9162 101.81C98.4976 102.062 98.2884 102.401 98.2884 102.825C98.2884 103.164 98.4238 103.45 98.6946 103.684C98.9654 103.918 99.4302 104.106 100.089 104.247L102.656 104.764C104.034 105.047 105.062 105.503 105.739 106.131C106.416 106.759 106.755 107.583 106.755 108.605C106.755 109.535 106.481 110.35 105.933 111.052C105.392 111.754 104.647 112.301 103.699 112.695C102.757 113.083 101.671 113.277 100.44 113.277C98.5623 113.277 97.0665 112.886 95.9524 112.104C94.8445 111.317 94.1951 110.246 94.0043 108.891L97.8729 108.688C97.9898 109.261 98.273 109.698 98.7223 109.999C99.1716 110.295 99.7472 110.442 100.449 110.442C101.138 110.442 101.692 110.31 102.111 110.045C102.536 109.775 102.751 109.427 102.757 109.002C102.751 108.645 102.6 108.353 102.305 108.125C102.009 107.891 101.554 107.713 100.938 107.589L98.4822 107.1C97.0973 106.823 96.0663 106.343 95.3892 105.66C94.7183 104.977 94.3828 104.106 94.3828 103.047C94.3828 102.136 94.629 101.351 95.1214 100.692C95.62 100.034 96.3187 99.526 97.2173 99.169C98.1222 98.812 99.1809 98.6335 100.393 98.6335C102.185 98.6335 103.594 99.0121 104.622 99.7692C105.656 100.526 106.259 101.557 106.432 102.862ZM111.531 113.24C110.921 113.24 110.398 113.025 109.961 112.594C109.53 112.157 109.315 111.634 109.315 111.024C109.315 110.421 109.53 109.904 109.961 109.473C110.398 109.042 110.921 108.827 111.531 108.827C112.122 108.827 112.639 109.042 113.082 109.473C113.525 109.904 113.747 110.421 113.747 111.024C113.747 111.43 113.642 111.803 113.433 112.141C113.23 112.474 112.962 112.741 112.629 112.945C112.297 113.142 111.931 113.24 111.531 113.24ZM128.974 113.259C127.669 113.259 126.506 113.018 125.484 112.538C124.468 112.058 123.662 111.397 123.065 110.553C122.468 109.71 122.157 108.744 122.132 107.654H126.01C126.053 108.387 126.361 108.981 126.934 109.436C127.506 109.892 128.186 110.119 128.974 110.119C129.602 110.119 130.156 109.981 130.636 109.704C131.122 109.421 131.501 109.03 131.772 108.531C132.049 108.027 132.187 107.448 132.187 106.795C132.187 106.131 132.046 105.546 131.762 105.041C131.485 104.536 131.101 104.143 130.608 103.859C130.116 103.576 129.553 103.432 128.919 103.425C128.365 103.425 127.826 103.539 127.303 103.767C126.786 103.995 126.383 104.306 126.093 104.7L122.539 104.062L123.434 94.0909H134.994V97.3594H126.73L126.241 102.096H126.352C126.684 101.628 127.186 101.24 127.857 100.933C128.528 100.625 129.279 100.471 130.11 100.471C131.248 100.471 132.264 100.739 133.157 101.274C134.049 101.81 134.754 102.545 135.271 103.481C135.788 104.41 136.043 105.481 136.037 106.694C136.043 107.968 135.748 109.101 135.151 110.092C134.56 111.076 133.732 111.852 132.667 112.418C131.609 112.978 130.377 113.259 128.974 113.259ZM142.528 110.415L142.426 111.43C142.346 112.243 142.193 113.052 141.965 113.859C141.743 114.671 141.509 115.407 141.263 116.065C141.023 116.724 140.829 117.241 140.681 117.616H138.133C138.225 117.253 138.352 116.746 138.512 116.093C138.672 115.447 138.823 114.72 138.964 113.914C139.106 113.108 139.195 112.286 139.232 111.449L139.278 110.415H142.528ZM152.74 113.415C151.152 113.409 149.785 113.018 148.64 112.243C147.502 111.467 146.624 110.344 146.009 108.873C145.4 107.402 145.098 105.632 145.104 103.564C145.104 101.502 145.409 99.7446 146.018 98.2919C146.634 96.8393 147.511 95.7344 148.65 94.9773C149.794 94.214 151.158 93.8324 152.74 93.8324C154.322 93.8324 155.682 94.214 156.821 94.9773C157.966 95.7405 158.846 96.8485 159.461 98.3011C160.077 99.7476 160.382 101.502 160.375 103.564C160.375 105.638 160.068 107.411 159.452 108.882C158.843 110.353 157.969 111.477 156.83 112.252C155.691 113.028 154.328 113.415 152.74 113.415ZM152.74 110.101C153.823 110.101 154.688 109.556 155.334 108.467C155.98 107.377 156.301 105.743 156.294 103.564C156.294 102.13 156.147 100.936 155.851 99.9815C155.562 99.0275 155.15 98.3104 154.614 97.8303C154.085 97.3501 153.46 97.1101 152.74 97.1101C151.663 97.1101 150.801 97.6487 150.154 98.7259C149.508 99.803 149.182 101.416 149.176 103.564C149.176 105.017 149.32 106.229 149.61 107.202C149.905 108.168 150.321 108.894 150.856 109.381C151.392 109.861 152.02 110.101 152.74 110.101ZM170.64 113.415C169.052 113.409 167.686 113.018 166.541 112.243C165.402 111.467 164.525 110.344 163.909 108.873C163.3 107.402 162.998 105.632 163.004 103.564C163.004 101.502 163.309 99.7446 163.919 98.2919C164.534 96.8393 165.411 95.7344 166.55 94.9773C167.695 94.214 169.058 93.8324 170.64 93.8324C172.222 93.8324 173.582 94.214 174.721 94.9773C175.866 95.7405 176.746 96.8485 177.362 98.3011C177.977 99.7476 178.282 101.502 178.276 103.564C178.276 105.638 177.968 107.411 177.352 108.882C176.743 110.353 175.869 111.477 174.73 112.252C173.592 113.028 172.228 113.415 170.64 113.415ZM170.64 110.101C171.723 110.101 172.588 109.556 173.235 108.467C173.881 107.377 174.201 105.743 174.195 103.564C174.195 102.13 174.047 100.936 173.752 99.9815C173.462 99.0275 173.05 98.3104 172.514 97.8303C171.985 97.3501 171.36 97.1101 170.64 97.1101C169.563 97.1101 168.701 97.6487 168.055 98.7259C167.409 99.803 167.082 101.416 167.076 103.564C167.076 105.017 167.221 106.229 167.51 107.202C167.806 108.168 168.221 108.894 168.757 109.381C169.292 109.861 169.92 110.101 170.64 110.101ZM184.676 110.415L184.575 111.43C184.495 112.243 184.341 113.052 184.113 113.859C183.892 114.671 183.658 115.407 183.412 116.065C183.172 116.724 182.978 117.241 182.83 117.616H180.282C180.374 117.253 180.5 116.746 180.66 116.093C180.82 115.447 180.971 114.72 181.113 113.914C181.254 113.108 181.343 112.286 181.38 111.449L181.426 110.415H184.676ZM194.888 113.415C193.3 113.409 191.934 113.018 190.789 112.243C189.65 111.467 188.773 110.344 188.157 108.873C187.548 107.402 187.246 105.632 187.252 103.564C187.252 101.502 187.557 99.7446 188.167 98.2919C188.782 96.8393 189.659 95.7344 190.798 94.9773C191.943 94.214 193.306 93.8324 194.888 93.8324C196.47 93.8324 197.83 94.214 198.969 94.9773C200.114 95.7405 200.994 96.8485 201.61 98.3011C202.225 99.7476 202.53 101.502 202.524 103.564C202.524 105.638 202.216 107.411 201.6 108.882C200.991 110.353 200.117 111.477 198.978 112.252C197.84 113.028 196.476 113.415 194.888 113.415ZM194.888 110.101C195.971 110.101 196.836 109.556 197.483 108.467C198.129 107.377 198.449 105.743 198.443 103.564C198.443 102.13 198.295 100.936 198 99.9815C197.71 99.0275 197.298 98.3104 196.762 97.8303C196.233 97.3501 195.608 97.1101 194.888 97.1101C193.811 97.1101 192.949 97.6487 192.303 98.7259C191.657 99.803 191.33 101.416 191.324 103.564C191.324 105.017 191.469 106.229 191.758 107.202C192.054 108.168 192.469 108.894 193.005 109.381C193.54 109.861 194.168 110.101 194.888 110.101ZM212.789 113.415C211.2 113.409 209.834 113.018 208.689 112.243C207.55 111.467 206.673 110.344 206.058 108.873C205.448 107.402 205.147 105.632 205.153 103.564C205.153 101.502 205.458 99.7446 206.067 98.2919C206.682 96.8393 207.56 95.7344 208.698 94.9773C209.843 94.214 211.207 93.8324 212.789 93.8324C214.37 93.8324 215.731 94.214 216.869 94.9773C218.014 95.7405 218.895 96.8485 219.51 98.3011C220.126 99.7476 220.43 101.502 220.424 103.564C220.424 105.638 220.116 107.411 219.501 108.882C218.892 110.353 218.017 111.477 216.879 112.252C215.74 113.028 214.377 113.415 212.789 113.415ZM212.789 110.101C213.872 110.101 214.737 109.556 215.383 108.467C216.029 107.377 216.349 105.743 216.343 103.564C216.343 102.13 216.195 100.936 215.9 99.9815C215.611 99.0275 215.198 98.3104 214.663 97.8303C214.133 97.3501 213.509 97.1101 212.789 97.1101C211.711 97.1101 210.85 97.6487 210.203 98.7259C209.557 99.803 209.231 101.416 209.225 103.564C209.225 105.017 209.369 106.229 209.659 107.202C209.954 108.168 210.369 108.894 210.905 109.381C211.441 109.861 212.068 110.101 212.789 110.101ZM230.689 113.415C229.101 113.409 227.734 113.018 226.589 112.243C225.451 111.467 224.574 110.344 223.958 108.873C223.349 107.402 223.047 105.632 223.053 103.564C223.053 101.502 223.358 99.7446 223.967 98.2919C224.583 96.8393 225.46 95.7344 226.599 94.9773C227.744 94.214 229.107 93.8324 230.689 93.8324C232.271 93.8324 233.631 94.214 234.77 94.9773C235.915 95.7405 236.795 96.8485 237.411 98.3011C238.026 99.7476 238.331 101.502 238.325 103.564C238.325 105.638 238.017 107.411 237.401 108.882C236.792 110.353 235.918 111.477 234.779 112.252C233.64 113.028 232.277 113.415 230.689 113.415ZM230.689 110.101C231.772 110.101 232.637 109.556 233.283 108.467C233.93 107.377 234.25 105.743 234.244 103.564C234.244 102.13 234.096 100.936 233.8 99.9815C233.511 99.0275 233.099 98.3104 232.563 97.8303C232.034 97.3501 231.409 97.1101 230.689 97.1101C229.612 97.1101 228.75 97.6487 228.104 98.7259C227.457 99.803 227.131 101.416 227.125 103.564C227.125 105.017 227.27 106.229 227.559 107.202C227.854 108.168 228.27 108.894 228.805 109.381C229.341 109.861 229.969 110.101 230.689 110.101Z" fill="#1E47FF"/>
<path d="M77.6435 113V94.0909H85.1037C86.5317 94.0909 87.7505 94.3464 88.7599 94.8572C89.7756 95.362 90.5481 96.0791 91.0774 97.0085C91.6129 97.9318 91.8807 99.0182 91.8807 100.268C91.8807 101.523 91.6098 102.604 91.0682 103.509C90.5265 104.407 89.7417 105.097 88.7138 105.577C87.692 106.057 86.4548 106.297 85.0021 106.297H80.0071V103.084H84.3558C85.1191 103.084 85.7531 102.979 86.2578 102.77C86.7625 102.561 87.138 102.247 87.3842 101.828C87.6366 101.41 87.7628 100.889 87.7628 100.268C87.7628 99.6399 87.6366 99.1106 87.3842 98.6797C87.138 98.2488 86.7595 97.9226 86.2486 97.701C85.7438 97.4732 85.1068 97.3594 84.3374 97.3594H81.6413V113H77.6435ZM87.8551 104.395L92.5547 113H88.1413L83.5433 104.395H87.8551ZM106.432 102.862L102.831 103.084C102.769 102.776 102.637 102.499 102.434 102.253C102.231 102 101.963 101.8 101.631 101.653C101.304 101.499 100.914 101.422 100.458 101.422C99.8487 101.422 99.3348 101.551 98.9162 101.81C98.4976 102.062 98.2884 102.401 98.2884 102.825C98.2884 103.164 98.4238 103.45 98.6946 103.684C98.9654 103.918 99.4302 104.106 100.089 104.247L102.656 104.764C104.034 105.047 105.062 105.503 105.739 106.131C106.416 106.759 106.755 107.583 106.755 108.605C106.755 109.535 106.481 110.35 105.933 111.052C105.392 111.754 104.647 112.301 103.699 112.695C102.757 113.083 101.671 113.277 100.44 113.277C98.5623 113.277 97.0665 112.886 95.9524 112.104C94.8445 111.317 94.1951 110.246 94.0043 108.891L97.8729 108.688C97.9898 109.261 98.273 109.698 98.7223 109.999C99.1716 110.295 99.7472 110.442 100.449 110.442C101.138 110.442 101.692 110.31 102.111 110.045C102.536 109.775 102.751 109.427 102.757 109.002C102.751 108.645 102.6 108.353 102.305 108.125C102.009 107.891 101.554 107.713 100.938 107.589L98.4822 107.1C97.0973 106.823 96.0663 106.343 95.3892 105.66C94.7183 104.977 94.3828 104.106 94.3828 103.047C94.3828 102.136 94.629 101.351 95.1214 100.692C95.62 100.034 96.3187 99.526 97.2173 99.169C98.1222 98.812 99.1809 98.6335 100.393 98.6335C102.185 98.6335 103.594 99.0121 104.622 99.7692C105.656 100.526 106.259 101.557 106.432 102.862ZM111.531 113.24C110.921 113.24 110.398 113.025 109.961 112.594C109.53 112.157 109.315 111.634 109.315 111.024C109.315 110.421 109.53 109.904 109.961 109.473C110.398 109.042 110.921 108.827 111.531 108.827C112.122 108.827 112.639 109.042 113.082 109.473C113.525 109.904 113.747 110.421 113.747 111.024C113.747 111.43 113.642 111.803 113.433 112.141C113.23 112.474 112.962 112.741 112.629 112.945C112.297 113.142 111.931 113.24 111.531 113.24ZM128.974 113.259C127.669 113.259 126.506 113.018 125.484 112.538C124.468 112.058 123.662 111.397 123.065 110.553C122.468 109.71 122.157 108.744 122.132 107.654H126.01C126.053 108.387 126.361 108.981 126.934 109.436C127.506 109.892 128.186 110.119 128.974 110.119C129.602 110.119 130.156 109.981 130.636 109.704C131.122 109.421 131.501 109.03 131.772 108.531C132.049 108.027 132.187 107.448 132.187 106.795C132.187 106.131 132.046 105.546 131.762 105.041C131.485 104.536 131.101 104.143 130.608 103.859C130.116 103.576 129.553 103.432 128.919 103.425C128.365 103.425 127.826 103.539 127.303 103.767C126.786 103.995 126.383 104.306 126.093 104.7L122.539 104.062L123.434 94.0909H134.994V97.3594H126.73L126.241 102.096H126.352C126.684 101.628 127.186 101.24 127.857 100.933C128.528 100.625 129.279 100.471 130.11 100.471C131.248 100.471 132.264 100.739 133.157 101.274C134.049 101.81 134.754 102.545 135.271 103.481C135.788 104.41 136.043 105.481 136.037 106.694C136.043 107.968 135.748 109.101 135.151 110.092C134.56 111.076 133.732 111.852 132.667 112.418C131.609 112.978 130.377 113.259 128.974 113.259ZM142.528 110.415L142.426 111.43C142.346 112.243 142.193 113.052 141.965 113.859C141.743 114.671 141.509 115.407 141.263 116.065C141.023 116.724 140.829 117.241 140.681 117.616H138.133C138.225 117.253 138.352 116.746 138.512 116.093C138.672 115.447 138.823 114.72 138.964 113.914C139.106 113.108 139.195 112.286 139.232 111.449L139.278 110.415H142.528ZM152.74 113.415C151.152 113.409 149.785 113.018 148.64 112.243C147.502 111.467 146.624 110.344 146.009 108.873C145.4 107.402 145.098 105.632 145.104 103.564C145.104 101.502 145.409 99.7446 146.018 98.2919C146.634 96.8393 147.511 95.7344 148.65 94.9773C149.794 94.214 151.158 93.8324 152.74 93.8324C154.322 93.8324 155.682 94.214 156.821 94.9773C157.966 95.7405 158.846 96.8485 159.461 98.3011C160.077 99.7476 160.382 101.502 160.375 103.564C160.375 105.638 160.068 107.411 159.452 108.882C158.843 110.353 157.969 111.477 156.83 112.252C155.691 113.028 154.328 113.415 152.74 113.415ZM152.74 110.101C153.823 110.101 154.688 109.556 155.334 108.467C155.98 107.377 156.301 105.743 156.294 103.564C156.294 102.13 156.147 100.936 155.851 99.9815C155.562 99.0275 155.15 98.3104 154.614 97.8303C154.085 97.3501 153.46 97.1101 152.74 97.1101C151.663 97.1101 150.801 97.6487 150.154 98.7259C149.508 99.803 149.182 101.416 149.176 103.564C149.176 105.017 149.32 106.229 149.61 107.202C149.905 108.168 150.321 108.894 150.856 109.381C151.392 109.861 152.02 110.101 152.74 110.101ZM170.64 113.415C169.052 113.409 167.686 113.018 166.541 112.243C165.402 111.467 164.525 110.344 163.909 108.873C163.3 107.402 162.998 105.632 163.004 103.564C163.004 101.502 163.309 99.7446 163.919 98.2919C164.534 96.8393 165.411 95.7344 166.55 94.9773C167.695 94.214 169.058 93.8324 170.64 93.8324C172.222 93.8324 173.582 94.214 174.721 94.9773C175.866 95.7405 176.746 96.8485 177.362 98.3011C177.977 99.7476 178.282 101.502 178.276 103.564C178.276 105.638 177.968 107.411 177.352 108.882C176.743 110.353 175.869 111.477 174.73 112.252C173.592 113.028 172.228 113.415 170.64 113.415ZM170.64 110.101C171.723 110.101 172.588 109.556 173.235 108.467C173.881 107.377 174.201 105.743 174.195 103.564C174.195 102.13 174.047 100.936 173.752 99.9815C173.462 99.0275 173.05 98.3104 172.514 97.8303C171.985 97.3501 171.36 97.1101 170.64 97.1101C169.563 97.1101 168.701 97.6487 168.055 98.7259C167.409 99.803 167.082 101.416 167.076 103.564C167.076 105.017 167.221 106.229 167.51 107.202C167.806 108.168 168.221 108.894 168.757 109.381C169.292 109.861 169.92 110.101 170.64 110.101ZM184.676 110.415L184.575 111.43C184.495 112.243 184.341 113.052 184.113 113.859C183.892 114.671 183.658 115.407 183.412 116.065C183.172 116.724 182.978 117.241 182.83 117.616H180.282C180.374 117.253 180.5 116.746 180.66 116.093C180.82 115.447 180.971 114.72 181.113 113.914C181.254 113.108 181.343 112.286 181.38 111.449L181.426 110.415H184.676ZM194.888 113.415C193.3 113.409 191.934 113.018 190.789 112.243C189.65 111.467 188.773 110.344 188.157 108.873C187.548 107.402 187.246 105.632 187.252 103.564C187.252 101.502 187.557 99.7446 188.167 98.2919C188.782 96.8393 189.659 95.7344 190.798 94.9773C191.943 94.214 193.306 93.8324 194.888 93.8324C196.47 93.8324 197.83 94.214 198.969 94.9773C200.114 95.7405 200.994 96.8485 201.61 98.3011C202.225 99.7476 202.53 101.502 202.524 103.564C202.524 105.638 202.216 107.411 201.6 108.882C200.991 110.353 200.117 111.477 198.978 112.252C197.84 113.028 196.476 113.415 194.888 113.415ZM194.888 110.101C195.971 110.101 196.836 109.556 197.483 108.467C198.129 107.377 198.449 105.743 198.443 103.564C198.443 102.13 198.295 100.936 198 99.9815C197.71 99.0275 197.298 98.3104 196.762 97.8303C196.233 97.3501 195.608 97.1101 194.888 97.1101C193.811 97.1101 192.949 97.6487 192.303 98.7259C191.657 99.803 191.33 101.416 191.324 103.564C191.324 105.017 191.469 106.229 191.758 107.202C192.054 108.168 192.469 108.894 193.005 109.381C193.54 109.861 194.168 110.101 194.888 110.101ZM212.789 113.415C211.2 113.409 209.834 113.018 208.689 112.243C207.55 111.467 206.673 110.344 206.058 108.873C205.448 107.402 205.147 105.632 205.153 103.564C205.153 101.502 205.458 99.7446 206.067 98.2919C206.682 96.8393 207.56 95.7344 208.698 94.9773C209.843 94.214 211.207 93.8324 212.789 93.8324C214.37 93.8324 215.731 94.214 216.869 94.9773C218.014 95.7405 218.895 96.8485 219.51 98.3011C220.126 99.7476 220.43 101.502 220.424 103.564C220.424 105.638 220.116 107.411 219.501 108.882C218.892 110.353 218.017 111.477 216.879 112.252C215.74 113.028 214.377 113.415 212.789 113.415ZM212.789 110.101C213.872 110.101 214.737 109.556 215.383 108.467C216.029 107.377 216.349 105.743 216.343 103.564C216.343 102.13 216.195 100.936 215.9 99.9815C215.611 99.0275 215.198 98.3104 214.663 97.8303C214.133 97.3501 213.509 97.1101 212.789 97.1101C211.711 97.1101 210.85 97.6487 210.203 98.7259C209.557 99.803 209.231 101.416 209.225 103.564C209.225 105.017 209.369 106.229 209.659 107.202C209.954 108.168 210.369 108.894 210.905 109.381C211.441 109.861 212.068 110.101 212.789 110.101ZM230.689 113.415C229.101 113.409 227.734 113.018 226.589 112.243C225.451 111.467 224.574 110.344 223.958 108.873C223.349 107.402 223.047 105.632 223.053 103.564C223.053 101.502 223.358 99.7446 223.967 98.2919C224.583 96.8393 225.46 95.7344 226.599 94.9773C227.744 94.214 229.107 93.8324 230.689 93.8324C232.271 93.8324 233.631 94.214 234.77 94.9773C235.915 95.7405 236.795 96.8485 237.411 98.3011C238.026 99.7476 238.331 101.502 238.325 103.564C238.325 105.638 238.017 107.411 237.401 108.882C236.792 110.353 235.918 111.477 234.779 112.252C233.64 113.028 232.277 113.415 230.689 113.415ZM230.689 110.101C231.772 110.101 232.637 109.556 233.283 108.467C233.93 107.377 234.25 105.743 234.244 103.564C234.244 102.13 234.096 100.936 233.8 99.9815C233.511 99.0275 233.099 98.3104 232.563 97.8303C232.034 97.3501 231.409 97.1101 230.689 97.1101C229.612 97.1101 228.75 97.6487 228.104 98.7259C227.457 99.803 227.131 101.416 227.125 103.564C227.125 105.017 227.27 106.229 227.559 107.202C227.854 108.168 228.27 108.894 228.805 109.381C229.341 109.861 229.969 110.101 230.689 110.101Z" fill="#1E47FF"/>
<path d="M80.5 227L193.5 190.5L304 230.5L420.5 154" stroke="#1E47FF" stroke-width="2"/>
<path opacity="0.25" d="M193.5 190.5L80.5 227V258H420.5V154L304 230.5L193.5 190.5Z" fill="url(#paint1_linear_1917_4413)"/>
<circle cx="80" cy="227" r="3.25" fill="white" stroke="#1E47FF" stroke-width="1.5"/>
<circle cx="193" cy="191" r="3.25" fill="white" stroke="#1E47FF" stroke-width="1.5"/>
<circle cx="304" cy="229" r="3.25" fill="white" stroke="#1E47FF" stroke-width="1.5"/>
<circle cx="388" cy="137" r="3.25" fill="white" stroke="#1E47FF" stroke-width="1.5"/>
</g>
<g filter="url(#filter3_d_1917_4413)">
<rect x="321" y="233" width="281" height="99" rx="20" fill="#07A917"/>
</g>
<g filter="url(#filter4_d_1917_4413)">
<path d="M360.719 264.254H358.86C358.807 263.949 358.709 263.679 358.567 263.443C358.424 263.205 358.247 263.002 358.035 262.837C357.823 262.671 357.581 262.547 357.309 262.464C357.04 262.378 356.75 262.335 356.439 262.335C355.885 262.335 355.395 262.474 354.967 262.752C354.54 263.027 354.205 263.432 353.963 263.965C353.721 264.496 353.6 265.143 353.6 265.909C353.6 266.688 353.721 267.344 353.963 267.878C354.208 268.408 354.543 268.809 354.967 269.081C355.395 269.349 355.884 269.484 356.434 269.484C356.739 269.484 357.024 269.444 357.289 269.364C357.558 269.281 357.798 269.161 358.01 269.001C358.225 268.842 358.406 268.647 358.552 268.415C358.701 268.183 358.804 267.918 358.86 267.619L360.719 267.629C360.65 268.113 360.499 268.567 360.267 268.991C360.038 269.416 359.738 269.79 359.367 270.115C358.996 270.437 358.562 270.688 358.065 270.871C357.567 271.05 357.016 271.139 356.409 271.139C355.514 271.139 354.715 270.932 354.013 270.518C353.31 270.103 352.757 269.505 352.352 268.723C351.948 267.941 351.746 267.003 351.746 265.909C351.746 264.812 351.95 263.874 352.357 263.095C352.765 262.313 353.32 261.715 354.023 261.3C354.725 260.886 355.521 260.679 356.409 260.679C356.976 260.679 357.503 260.759 357.99 260.918C358.477 261.077 358.911 261.31 359.293 261.619C359.674 261.924 359.987 262.298 360.232 262.742C360.481 263.183 360.643 263.687 360.719 264.254ZM367.196 267.788V263.364H368.996V271H367.251V269.643H367.171C366.999 270.07 366.716 270.42 366.321 270.692C365.93 270.964 365.448 271.099 364.874 271.099C364.374 271.099 363.932 270.988 363.547 270.766C363.166 270.541 362.868 270.214 362.652 269.787C362.437 269.356 362.329 268.836 362.329 268.226V263.364H364.129V267.947C364.129 268.431 364.261 268.816 364.526 269.101C364.792 269.386 365.14 269.528 365.57 269.528C365.836 269.528 366.093 269.464 366.341 269.335C366.59 269.205 366.794 269.013 366.953 268.758C367.115 268.499 367.196 268.176 367.196 267.788ZM370.847 271V263.364H372.592V264.636H372.671C372.81 264.196 373.049 263.856 373.387 263.617C373.728 263.375 374.118 263.254 374.555 263.254C374.655 263.254 374.766 263.259 374.888 263.269C375.014 263.276 375.119 263.287 375.202 263.304V264.96C375.125 264.933 375.004 264.91 374.839 264.89C374.676 264.867 374.519 264.855 374.366 264.855C374.038 264.855 373.743 264.926 373.482 265.069C373.223 265.208 373.019 265.402 372.87 265.651C372.721 265.899 372.646 266.186 372.646 266.511V271H370.847ZM376.397 271V263.364H378.142V264.636H378.222C378.361 264.196 378.6 263.856 378.938 263.617C379.279 263.375 379.669 263.254 380.106 263.254C380.206 263.254 380.317 263.259 380.439 263.269C380.565 263.276 380.67 263.287 380.752 263.304V264.96C380.676 264.933 380.555 264.91 380.39 264.89C380.227 264.867 380.07 264.855 379.917 264.855C379.589 264.855 379.294 264.926 379.032 265.069C378.774 265.208 378.57 265.402 378.421 265.651C378.272 265.899 378.197 266.186 378.197 266.511V271H376.397ZM385.014 271.149C384.249 271.149 383.588 270.99 383.031 270.672C382.477 270.35 382.051 269.896 381.753 269.31C381.455 268.72 381.306 268.025 381.306 267.227C381.306 266.441 381.455 265.752 381.753 265.158C382.055 264.562 382.476 264.098 383.016 263.766C383.556 263.432 384.191 263.264 384.92 263.264C385.391 263.264 385.835 263.34 386.252 263.493C386.673 263.642 387.044 263.874 387.366 264.189C387.691 264.504 387.946 264.905 388.132 265.392C388.317 265.876 388.41 266.453 388.41 267.122V267.674H382.151V266.461H386.685C386.682 266.116 386.607 265.81 386.461 265.541C386.315 265.269 386.111 265.056 385.85 264.9C385.591 264.744 385.289 264.666 384.945 264.666C384.577 264.666 384.254 264.756 383.975 264.935C383.697 265.11 383.48 265.342 383.324 265.631C383.172 265.916 383.094 266.229 383.09 266.57V267.629C383.09 268.073 383.172 268.455 383.334 268.773C383.496 269.088 383.723 269.33 384.015 269.499C384.307 269.664 384.648 269.747 385.039 269.747C385.301 269.747 385.538 269.711 385.75 269.638C385.962 269.562 386.146 269.451 386.302 269.305C386.458 269.159 386.575 268.978 386.655 268.763L388.335 268.952C388.229 269.396 388.027 269.784 387.729 270.115C387.434 270.443 387.056 270.698 386.595 270.881C386.135 271.06 385.608 271.149 385.014 271.149ZM391.732 266.526V271H389.933V263.364H391.653V264.661H391.742C391.918 264.234 392.198 263.894 392.582 263.642C392.97 263.39 393.449 263.264 394.019 263.264C394.546 263.264 395.005 263.377 395.396 263.602C395.791 263.828 396.096 264.154 396.311 264.582C396.53 265.009 396.638 265.528 396.634 266.138V271H394.835V266.416C394.835 265.906 394.702 265.506 394.437 265.218C394.175 264.93 393.812 264.786 393.348 264.786C393.033 264.786 392.753 264.855 392.508 264.994C392.266 265.13 392.075 265.327 391.936 265.586C391.8 265.844 391.732 266.158 391.732 266.526ZM402.277 263.364V264.756H397.887V263.364H402.277ZM398.971 261.534H400.771V268.703C400.771 268.945 400.807 269.131 400.88 269.26C400.956 269.386 401.056 269.472 401.178 269.518C401.301 269.565 401.437 269.588 401.586 269.588C401.699 269.588 401.801 269.58 401.894 269.563C401.99 269.547 402.063 269.532 402.113 269.518L402.416 270.925C402.32 270.959 402.183 270.995 402.004 271.035C401.828 271.075 401.612 271.098 401.357 271.104C400.906 271.118 400.5 271.05 400.139 270.901C399.778 270.748 399.491 270.513 399.279 270.195C399.07 269.876 398.968 269.479 398.971 269.001V261.534ZM408.697 260.818L411.346 268.832H411.451L414.096 260.818H416.124L412.535 271H410.258L406.673 260.818H408.697ZM418.79 271.154C418.306 271.154 417.87 271.068 417.483 270.896C417.098 270.72 416.793 270.461 416.568 270.12C416.346 269.779 416.235 269.358 416.235 268.857C416.235 268.426 416.314 268.07 416.473 267.788C416.632 267.507 416.85 267.281 417.125 267.112C417.4 266.943 417.71 266.816 418.054 266.729C418.402 266.64 418.762 266.575 419.133 266.536C419.581 266.489 419.944 266.448 420.222 266.411C420.5 266.371 420.703 266.312 420.828 266.232C420.958 266.149 421.022 266.022 421.022 265.849V265.82C421.022 265.445 420.911 265.155 420.689 264.95C420.467 264.744 420.147 264.641 419.73 264.641C419.289 264.641 418.939 264.737 418.681 264.93C418.426 265.122 418.253 265.349 418.164 265.611L416.483 265.372C416.616 264.908 416.835 264.52 417.14 264.209C417.444 263.894 417.817 263.659 418.258 263.503C418.699 263.344 419.186 263.264 419.72 263.264C420.088 263.264 420.454 263.307 420.819 263.393C421.183 263.48 421.516 263.622 421.818 263.821C422.119 264.017 422.361 264.283 422.544 264.621C422.729 264.96 422.822 265.382 422.822 265.889V271H421.092V269.951H421.032C420.923 270.163 420.769 270.362 420.57 270.548C420.374 270.73 420.127 270.877 419.829 270.99C419.534 271.099 419.188 271.154 418.79 271.154ZM419.257 269.832C419.619 269.832 419.932 269.76 420.197 269.618C420.462 269.472 420.666 269.28 420.809 269.041C420.954 268.803 421.027 268.542 421.027 268.261V267.361C420.971 267.407 420.875 267.45 420.739 267.49C420.606 267.53 420.457 267.565 420.292 267.594C420.126 267.624 419.962 267.651 419.799 267.674C419.637 267.697 419.496 267.717 419.377 267.734C419.108 267.77 418.868 267.83 418.656 267.913C418.444 267.996 418.276 268.112 418.154 268.261C418.031 268.406 417.97 268.595 417.97 268.827C417.97 269.159 418.091 269.409 418.333 269.578C418.575 269.747 418.883 269.832 419.257 269.832ZM426.431 260.818V271H424.632V260.818H426.431ZM433.149 267.788V263.364H434.949V271H433.204V269.643H433.124C432.952 270.07 432.669 270.42 432.274 270.692C431.883 270.964 431.401 271.099 430.828 271.099C430.327 271.099 429.885 270.988 429.5 270.766C429.119 270.541 428.821 270.214 428.605 269.787C428.39 269.356 428.282 268.836 428.282 268.226V263.364H430.082V267.947C430.082 268.431 430.214 268.816 430.48 269.101C430.745 269.386 431.093 269.528 431.524 269.528C431.789 269.528 432.046 269.464 432.294 269.335C432.543 269.205 432.747 269.013 432.906 268.758C433.068 268.499 433.149 268.176 433.149 267.788ZM438.997 271.154C438.513 271.154 438.077 271.068 437.69 270.896C437.305 270.72 437 270.461 436.775 270.12C436.553 269.779 436.442 269.358 436.442 268.857C436.442 268.426 436.521 268.07 436.68 267.788C436.839 267.507 437.057 267.281 437.332 267.112C437.607 266.943 437.917 266.816 438.261 266.729C438.609 266.64 438.969 266.575 439.34 266.536C439.788 266.489 440.151 266.448 440.429 266.411C440.707 266.371 440.91 266.312 441.036 266.232C441.165 266.149 441.229 266.022 441.229 265.849V265.82C441.229 265.445 441.118 265.155 440.896 264.95C440.674 264.744 440.354 264.641 439.937 264.641C439.496 264.641 439.146 264.737 438.888 264.93C438.633 265.122 438.46 265.349 438.371 265.611L436.69 265.372C436.823 264.908 437.042 264.52 437.347 264.209C437.652 263.894 438.024 263.659 438.465 263.503C438.906 263.344 439.393 263.264 439.927 263.264C440.295 263.264 440.661 263.307 441.026 263.393C441.39 263.48 441.723 263.622 442.025 263.821C442.326 264.017 442.568 264.283 442.751 264.621C442.936 264.96 443.029 265.382 443.029 265.889V271H441.299V269.951H441.239C441.13 270.163 440.976 270.362 440.777 270.548C440.581 270.73 440.335 270.877 440.036 270.99C439.741 271.099 439.395 271.154 438.997 271.154ZM439.464 269.832C439.826 269.832 440.139 269.76 440.404 269.618C440.669 269.472 440.873 269.28 441.016 269.041C441.161 268.803 441.234 268.542 441.234 268.261V267.361C441.178 267.407 441.082 267.45 440.946 267.49C440.813 267.53 440.664 267.565 440.499 267.594C440.333 267.624 440.169 267.651 440.006 267.674C439.844 267.697 439.703 267.717 439.584 267.734C439.315 267.77 439.075 267.83 438.863 267.913C438.651 267.996 438.483 268.112 438.361 268.261C438.238 268.406 438.177 268.595 438.177 268.827C438.177 269.159 438.298 269.409 438.54 269.578C438.782 269.747 439.09 269.832 439.464 269.832ZM448.652 263.364V264.756H444.262V263.364H448.652ZM445.346 261.534H447.146V268.703C447.146 268.945 447.182 269.131 447.255 269.26C447.331 269.386 447.431 269.472 447.553 269.518C447.676 269.565 447.812 269.588 447.961 269.588C448.074 269.588 448.176 269.58 448.269 269.563C448.365 269.547 448.438 269.532 448.488 269.518L448.791 270.925C448.695 270.959 448.558 270.995 448.379 271.035C448.203 271.075 447.987 271.098 447.732 271.104C447.281 271.118 446.875 271.05 446.514 270.901C446.153 270.748 445.866 270.513 445.654 270.195C445.445 269.876 445.343 269.479 445.346 269.001V261.534ZM450.157 271V263.364H451.957V271H450.157ZM451.062 262.28C450.777 262.28 450.532 262.185 450.326 261.996C450.121 261.804 450.018 261.574 450.018 261.305C450.018 261.034 450.121 260.803 450.326 260.614C450.532 260.422 450.777 260.326 451.062 260.326C451.35 260.326 451.596 260.422 451.798 260.614C452.003 260.803 452.106 261.034 452.106 261.305C452.106 261.574 452.003 261.804 451.798 261.996C451.596 262.185 451.35 262.28 451.062 262.28ZM457.138 271.149C456.393 271.149 455.746 270.985 455.2 270.657C454.653 270.329 454.228 269.87 453.927 269.28C453.629 268.69 453.479 268 453.479 267.212C453.479 266.423 453.629 265.732 453.927 265.138C454.228 264.545 454.653 264.085 455.2 263.756C455.746 263.428 456.393 263.264 457.138 263.264C457.884 263.264 458.531 263.428 459.077 263.756C459.624 264.085 460.047 264.545 460.345 265.138C460.647 265.732 460.798 266.423 460.798 267.212C460.798 268 460.647 268.69 460.345 269.28C460.047 269.87 459.624 270.329 459.077 270.657C458.531 270.985 457.884 271.149 457.138 271.149ZM457.148 269.707C457.553 269.707 457.891 269.596 458.163 269.374C458.434 269.149 458.637 268.847 458.769 268.469C458.905 268.092 458.973 267.671 458.973 267.207C458.973 266.739 458.905 266.317 458.769 265.939C458.637 265.558 458.434 265.254 458.163 265.029C457.891 264.804 457.553 264.691 457.148 264.691C456.734 264.691 456.389 264.804 456.114 265.029C455.843 265.254 455.639 265.558 455.503 265.939C455.37 266.317 455.304 266.739 455.304 267.207C455.304 267.671 455.37 268.092 455.503 268.469C455.639 268.847 455.843 269.149 456.114 269.374C456.389 269.596 456.734 269.707 457.148 269.707ZM464.125 266.526V271H462.325V263.364H464.045V264.661H464.135C464.31 264.234 464.59 263.894 464.975 263.642C465.363 263.39 465.842 263.264 466.412 263.264C466.939 263.264 467.398 263.377 467.789 263.602C468.183 263.828 468.488 264.154 468.704 264.582C468.922 265.009 469.03 265.528 469.027 266.138V271H467.227V266.416C467.227 265.906 467.095 265.506 466.829 265.218C466.568 264.93 466.205 264.786 465.741 264.786C465.426 264.786 465.146 264.855 464.9 264.994C464.658 265.13 464.468 265.327 464.329 265.586C464.193 265.844 464.125 266.158 464.125 266.526Z" fill="white"/>
</g>
<g filter="url(#filter5_d_1917_4413)">
<path d="M352.643 299V280.091H360.104C361.532 280.091 362.75 280.346 363.76 280.857C364.776 281.362 365.548 282.079 366.077 283.009C366.613 283.932 366.881 285.018 366.881 286.268C366.881 287.523 366.61 288.604 366.068 289.509C365.527 290.407 364.742 291.097 363.714 291.577C362.692 292.057 361.455 292.297 360.002 292.297H355.007V289.084H359.356C360.119 289.084 360.753 288.979 361.258 288.77C361.763 288.561 362.138 288.247 362.384 287.828C362.637 287.41 362.763 286.889 362.763 286.268C362.763 285.64 362.637 285.111 362.384 284.68C362.138 284.249 361.759 283.923 361.249 283.701C360.744 283.473 360.107 283.359 359.337 283.359H356.641V299H352.643ZM362.855 290.395L367.555 299H363.141L358.543 290.395H362.855ZM381.432 288.862L377.831 289.084C377.769 288.776 377.637 288.499 377.434 288.253C377.231 288 376.963 287.8 376.631 287.653C376.304 287.499 375.914 287.422 375.458 287.422C374.849 287.422 374.335 287.551 373.916 287.81C373.498 288.062 373.288 288.401 373.288 288.825C373.288 289.164 373.424 289.45 373.695 289.684C373.965 289.918 374.43 290.106 375.089 290.247L377.656 290.764C379.034 291.047 380.062 291.503 380.739 292.131C381.416 292.759 381.755 293.583 381.755 294.605C381.755 295.535 381.481 296.35 380.933 297.052C380.392 297.754 379.647 298.301 378.699 298.695C377.757 299.083 376.671 299.277 375.44 299.277C373.562 299.277 372.067 298.886 370.952 298.104C369.844 297.317 369.195 296.246 369.004 294.891L372.873 294.688C372.99 295.261 373.273 295.698 373.722 295.999C374.172 296.295 374.747 296.442 375.449 296.442C376.138 296.442 376.692 296.31 377.111 296.045C377.536 295.775 377.751 295.427 377.757 295.002C377.751 294.645 377.6 294.353 377.305 294.125C377.009 293.891 376.554 293.713 375.938 293.589L373.482 293.1C372.097 292.823 371.066 292.343 370.389 291.66C369.718 290.977 369.383 290.106 369.383 289.047C369.383 288.136 369.629 287.351 370.121 286.692C370.62 286.034 371.319 285.526 372.217 285.169C373.122 284.812 374.181 284.634 375.393 284.634C377.185 284.634 378.594 285.012 379.622 285.769C380.656 286.526 381.259 287.557 381.432 288.862ZM386.531 299.24C385.921 299.24 385.398 299.025 384.961 298.594C384.53 298.157 384.315 297.634 384.315 297.024C384.315 296.421 384.53 295.904 384.961 295.473C385.398 295.042 385.921 294.827 386.531 294.827C387.122 294.827 387.639 295.042 388.082 295.473C388.525 295.904 388.747 296.421 388.747 297.024C388.747 297.43 388.642 297.803 388.433 298.141C388.23 298.474 387.962 298.741 387.629 298.945C387.297 299.142 386.931 299.24 386.531 299.24ZM403.974 299.259C402.669 299.259 401.506 299.018 400.484 298.538C399.468 298.058 398.662 297.397 398.065 296.553C397.468 295.71 397.157 294.744 397.132 293.654H401.01C401.053 294.387 401.361 294.981 401.934 295.436C402.506 295.892 403.186 296.119 403.974 296.119C404.602 296.119 405.156 295.981 405.636 295.704C406.122 295.421 406.501 295.03 406.772 294.531C407.049 294.027 407.187 293.448 407.187 292.795C407.187 292.131 407.046 291.546 406.762 291.041C406.485 290.536 406.101 290.143 405.608 289.859C405.116 289.576 404.553 289.432 403.919 289.425C403.365 289.425 402.826 289.539 402.303 289.767C401.786 289.995 401.383 290.306 401.093 290.7L397.539 290.062L398.434 280.091H409.994V283.359H401.73L401.241 288.096H401.352C401.684 287.628 402.186 287.24 402.857 286.933C403.528 286.625 404.279 286.471 405.11 286.471C406.248 286.471 407.264 286.739 408.157 287.274C409.049 287.81 409.754 288.545 410.271 289.481C410.788 290.41 411.043 291.481 411.037 292.694C411.043 293.968 410.748 295.101 410.151 296.092C409.56 297.076 408.732 297.852 407.667 298.418C406.609 298.978 405.377 299.259 403.974 299.259ZM417.528 296.415L417.426 297.43C417.346 298.243 417.193 299.052 416.965 299.859C416.743 300.671 416.509 301.407 416.263 302.065C416.023 302.724 415.829 303.241 415.681 303.616H413.133C413.225 303.253 413.352 302.746 413.512 302.093C413.672 301.447 413.823 300.72 413.964 299.914C414.106 299.108 414.195 298.286 414.232 297.449L414.278 296.415H417.528ZM427.74 299.415C426.152 299.409 424.785 299.018 423.64 298.243C422.502 297.467 421.624 296.344 421.009 294.873C420.4 293.402 420.098 291.632 420.104 289.564C420.104 287.502 420.409 285.745 421.018 284.292C421.634 282.839 422.511 281.734 423.65 280.977C424.794 280.214 426.158 279.832 427.74 279.832C429.322 279.832 430.682 280.214 431.821 280.977C432.966 281.741 433.846 282.848 434.461 284.301C435.077 285.748 435.382 287.502 435.375 289.564C435.375 291.638 435.068 293.411 434.452 294.882C433.843 296.353 432.969 297.477 431.83 298.252C430.691 299.028 429.328 299.415 427.74 299.415ZM427.74 296.101C428.823 296.101 429.688 295.556 430.334 294.467C430.98 293.377 431.301 291.743 431.294 289.564C431.294 288.13 431.147 286.936 430.851 285.982C430.562 285.027 430.15 284.31 429.614 283.83C429.085 283.35 428.46 283.11 427.74 283.11C426.663 283.11 425.801 283.649 425.154 284.726C424.508 285.803 424.182 287.416 424.176 289.564C424.176 291.017 424.32 292.229 424.61 293.202C424.905 294.168 425.321 294.894 425.856 295.381C426.392 295.861 427.02 296.101 427.74 296.101ZM445.64 299.415C444.052 299.409 442.686 299.018 441.541 298.243C440.402 297.467 439.525 296.344 438.909 294.873C438.3 293.402 437.998 291.632 438.004 289.564C438.004 287.502 438.309 285.745 438.919 284.292C439.534 282.839 440.411 281.734 441.55 280.977C442.695 280.214 444.058 279.832 445.64 279.832C447.222 279.832 448.582 280.214 449.721 280.977C450.866 281.741 451.746 282.848 452.362 284.301C452.977 285.748 453.282 287.502 453.276 289.564C453.276 291.638 452.968 293.411 452.352 294.882C451.743 296.353 450.869 297.477 449.73 298.252C448.592 299.028 447.228 299.415 445.64 299.415ZM445.64 296.101C446.723 296.101 447.588 295.556 448.235 294.467C448.881 293.377 449.201 291.743 449.195 289.564C449.195 288.13 449.047 286.936 448.752 285.982C448.462 285.027 448.05 284.31 447.514 283.83C446.985 283.35 446.36 283.11 445.64 283.11C444.563 283.11 443.701 283.649 443.055 284.726C442.409 285.803 442.082 287.416 442.076 289.564C442.076 291.017 442.221 292.229 442.51 293.202C442.806 294.168 443.221 294.894 443.757 295.381C444.292 295.861 444.92 296.101 445.64 296.101ZM459.676 296.415L459.575 297.43C459.495 298.243 459.341 299.052 459.113 299.859C458.892 300.671 458.658 301.407 458.412 302.065C458.172 302.724 457.978 303.241 457.83 303.616H455.282C455.374 303.253 455.5 302.746 455.66 302.093C455.82 301.447 455.971 300.72 456.113 299.914C456.254 299.108 456.343 298.286 456.38 297.449L456.426 296.415H459.676ZM469.888 299.415C468.3 299.409 466.934 299.018 465.789 298.243C464.65 297.467 463.773 296.344 463.157 294.873C462.548 293.402 462.246 291.632 462.252 289.564C462.252 287.502 462.557 285.745 463.167 284.292C463.782 282.839 464.659 281.734 465.798 280.977C466.943 280.214 468.306 279.832 469.888 279.832C471.47 279.832 472.83 280.214 473.969 280.977C475.114 281.741 475.994 282.848 476.61 284.301C477.225 285.748 477.53 287.502 477.524 289.564C477.524 291.638 477.216 293.411 476.6 294.882C475.991 296.353 475.117 297.477 473.978 298.252C472.84 299.028 471.476 299.415 469.888 299.415ZM469.888 296.101C470.971 296.101 471.836 295.556 472.483 294.467C473.129 293.377 473.449 291.743 473.443 289.564C473.443 288.13 473.295 286.936 473 285.982C472.71 285.027 472.298 284.31 471.762 283.83C471.233 283.35 470.608 283.11 469.888 283.11C468.811 283.11 467.949 283.649 467.303 284.726C466.657 285.803 466.33 287.416 466.324 289.564C466.324 291.017 466.469 292.229 466.758 293.202C467.054 294.168 467.469 294.894 468.005 295.381C468.54 295.861 469.168 296.101 469.888 296.101ZM487.789 299.415C486.2 299.409 484.834 299.018 483.689 298.243C482.55 297.467 481.673 296.344 481.058 294.873C480.448 293.402 480.147 291.632 480.153 289.564C480.153 287.502 480.458 285.745 481.067 284.292C481.682 282.839 482.56 281.734 483.698 280.977C484.843 280.214 486.207 279.832 487.789 279.832C489.37 279.832 490.731 280.214 491.869 280.977C493.014 281.741 493.895 282.848 494.51 284.301C495.126 285.748 495.43 287.502 495.424 289.564C495.424 291.638 495.116 293.411 494.501 294.882C493.892 296.353 493.017 297.477 491.879 298.252C490.74 299.028 489.377 299.415 487.789 299.415ZM487.789 296.101C488.872 296.101 489.737 295.556 490.383 294.467C491.029 293.377 491.349 291.743 491.343 289.564C491.343 288.13 491.195 286.936 490.9 285.982C490.611 285.027 490.198 284.31 489.663 283.83C489.133 283.35 488.509 283.11 487.789 283.11C486.711 283.11 485.85 283.649 485.203 284.726C484.557 285.803 484.231 287.416 484.225 289.564C484.225 291.017 484.369 292.229 484.659 293.202C484.954 294.168 485.369 294.894 485.905 295.381C486.441 295.861 487.068 296.101 487.789 296.101ZM505.689 299.415C504.101 299.409 502.734 299.018 501.589 298.243C500.451 297.467 499.574 296.344 498.958 294.873C498.349 293.402 498.047 291.632 498.053 289.564C498.053 287.502 498.358 285.745 498.967 284.292C499.583 282.839 500.46 281.734 501.599 280.977C502.744 280.214 504.107 279.832 505.689 279.832C507.271 279.832 508.631 280.214 509.77 280.977C510.915 281.741 511.795 282.848 512.411 284.301C513.026 285.748 513.331 287.502 513.325 289.564C513.325 291.638 513.017 293.411 512.401 294.882C511.792 296.353 510.918 297.477 509.779 298.252C508.64 299.028 507.277 299.415 505.689 299.415ZM505.689 296.101C506.772 296.101 507.637 295.556 508.283 294.467C508.93 293.377 509.25 291.743 509.244 289.564C509.244 288.13 509.096 286.936 508.8 285.982C508.511 285.027 508.099 284.31 507.563 283.83C507.034 283.35 506.409 283.11 505.689 283.11C504.612 283.11 503.75 283.649 503.104 284.726C502.457 285.803 502.131 287.416 502.125 289.564C502.125 291.017 502.27 292.229 502.559 293.202C502.854 294.168 503.27 294.894 503.805 295.381C504.341 295.861 504.969 296.101 505.689 296.101Z" fill="white"/>
</g>
<defs>
<filter id="filter0_d_1917_4413" x="232.23" y="87.4541" width="330.77" height="321.092" filterUnits="userSpaceOnUse" color-interpolation-filters="sRGB">
<feFlood flood-opacity="0" result="BackgroundImageFix"/>
<feColorMatrix in="SourceAlpha" type="matrix" values="0 0 0 0 0 0 0 0 0 0 0 0 0 0 0 0 0 0 127 0" result="hardAlpha"/>
<feOffset dy="4"/>
<feGaussianBlur stdDeviation="2"/>
<feComposite in2="hardAlpha" operator="out"/>
<feColorMatrix type="matrix" values="0 0 0 0 0 0 0 0 0 0 0 0 0 0 0 0 0 0 0.25 0"/>
<feBlend mode="normal" in2="BackgroundImageFix" result="effect1_dropShadow_1917_4413"/>
<feBlend mode="normal" in="SourceGraphic" in2="effect1_dropShadow_1917_4413" result="shape"/>
</filter>
<filter id="filter1_d_1917_4413" x="36" y="36" width="433" height="278" filterUnits="userSpaceOnUse" color-interpolation-filters="sRGB">
<feFlood flood-opacity="0" result="BackgroundImageFix"/>
<feColorMatrix in="SourceAlpha" type="matrix" values="0 0 0 0 0 0 0 0 0 0 0 0 0 0 0 0 0 0 127 0" result="hardAlpha"/>
<feOffset dy="4"/>
<feGaussianBlur stdDeviation="2"/>
<feComposite in2="hardAlpha" operator="out"/>
<feColorMatrix type="matrix" values="0 0 0 0 0 0 0 0 0 0 0 0 0 0 0 0 0 0 0.25 0"/>
<feBlend mode="normal" in2="BackgroundImageFix" result="effect1_dropShadow_1917_4413"/>
<feBlend mode="normal" in="SourceGraphic" in2="effect1_dropShadow_1917_4413" result="shape"/>
</filter>
<filter id="filter2_d_1917_4413" x="0" y="0" width="505" height="350" filterUnits="userSpaceOnUse" color-interpolation-filters="sRGB">
<feFlood flood-opacity="0" result="BackgroundImageFix"/>
<feColorMatrix in="SourceAlpha" type="matrix" values="0 0 0 0 0 0 0 0 0 0 0 0 0 0 0 0 0 0 127 0" result="hardAlpha"/>
<feOffset dy="4"/>
<feGaussianBlur stdDeviation="20"/>
<feComposite in2="hardAlpha" operator="out"/>
<feColorMatrix type="matrix" values="0 0 0 0 0 0 0 0 0 0 0 0 0 0 0 0 0 0 0.15 0"/>
<feBlend mode="normal" in2="BackgroundImageFix" result="effect1_dropShadow_1917_4413"/>
<feBlend mode="normal" in="SourceGraphic" in2="effect1_dropShadow_1917_4413" result="shape"/>
</filter>
<filter id="filter3_d_1917_4413" x="317" y="233" width="289" height="107" filterUnits="userSpaceOnUse" color-interpolation-filters="sRGB">
<feFlood flood-opacity="0" result="BackgroundImageFix"/>
<feColorMatrix in="SourceAlpha" type="matrix" values="0 0 0 0 0 0 0 0 0 0 0 0 0 0 0 0 0 0 127 0" result="hardAlpha"/>
<feOffset dy="4"/>
<feGaussianBlur stdDeviation="2"/>
<feComposite in2="hardAlpha" operator="out"/>
<feColorMatrix type="matrix" values="0 0 0 0 0 0 0 0 0 0 0 0 0 0 0 0 0 0 0.25 0"/>
<feBlend mode="normal" in2="BackgroundImageFix" result="effect1_dropShadow_1917_4413"/>
<feBlend mode="normal" in="SourceGraphic" in2="effect1_dropShadow_1917_4413" result="shape"/>
</filter>
<filter id="filter4_d_1917_4413" x="347.746" y="260.326" width="125.285" height="18.8281" filterUnits="userSpaceOnUse" color-interpolation-filters="sRGB">
<feFlood flood-opacity="0" result="BackgroundImageFix"/>
<feColorMatrix in="SourceAlpha" type="matrix" values="0 0 0 0 0 0 0 0 0 0 0 0 0 0 0 0 0 0 127 0" result="hardAlpha"/>
<feOffset dy="4"/>
<feGaussianBlur stdDeviation="2"/>
<feComposite in2="hardAlpha" operator="out"/>
<feColorMatrix type="matrix" values="0 0 0 0 0 0 0 0 0 0 0 0 0 0 0 0 0 0 0.25 0"/>
<feBlend mode="normal" in2="BackgroundImageFix" result="effect1_dropShadow_1917_4413"/>
<feBlend mode="normal" in="SourceGraphic" in2="effect1_dropShadow_1917_4413" result="shape"/>
</filter>
<filter id="filter5_d_1917_4413" x="348.645" y="279.833" width="168.688" height="31.7842" filterUnits="userSpaceOnUse" color-interpolation-filters="sRGB">
<feFlood flood-opacity="0" result="BackgroundImageFix"/>
<feColorMatrix in="SourceAlpha" type="matrix" values="0 0 0 0 0 0 0 0 0 0 0 0 0 0 0 0 0 0 127 0" result="hardAlpha"/>
<feOffset dy="4"/>
<feGaussianBlur stdDeviation="2"/>
<feComposite in2="hardAlpha" operator="out"/>
<feColorMatrix type="matrix" values="0 0 0 0 0 0 0 0 0 0 0 0 0 0 0 0 0 0 0.25 0"/>
<feBlend mode="normal" in2="BackgroundImageFix" result="effect1_dropShadow_1917_4413"/>
<feBlend mode="normal" in="SourceGraphic" in2="effect1_dropShadow_1917_4413" result="shape"/>
</filter>
<linearGradient id="paint0_linear_1917_4413" x1="329.137" y1="383.013" x2="466.093" y2="104.988" gradientUnits="userSpaceOnUse">
<stop offset="0.09375" stop-color="#1E47FF"/>
<stop offset="0.963542" stop-color="#0F9AFF" stop-opacity="0.79"/>
<stop offset="1" stop-color="#1381FF" stop-opacity="0.854132"/>
</linearGradient>
<linearGradient id="paint1_linear_1917_4413" x1="250.5" y1="154" x2="250.5" y2="258" gradientUnits="userSpaceOnUse">
<stop stop-color="#1E47FF"/>
<stop offset="1" stop-color="#1E47FF" stop-opacity="0"/>
</linearGradient>
</defs>
</svg>
