<svg xmlns:xlink="http://www.w3.org/1999/xlink" xmlns="http://www.w3.org/2000/svg" width="117" height="43" viewBox="0 0 117 43" fill="none">
<path d="M34.0179 31.2009C38.9552 31.2009 41.5079 29.2247 41.5079 25.4389C41.5079 18.8553 32.3449 21.708 32.3449 17.2639C32.3449 15.9475 32.8649 15.0694 34.4562 15.0694C35.7742 15.0694 36.5423 15.4527 36.789 16.6057C37.1173 18.1421 37.5571 18.9652 38.9552 18.9652C40.3549 18.9652 41.3147 18.1971 41.2047 16.6874C40.9581 13.4498 38.8186 11.6401 34.5394 11.6401C30.1221 11.6401 27.5977 13.2582 27.5977 17.3739C27.5977 24.0942 36.3491 21.9546 36.3491 25.7688C36.3491 26.8935 35.6642 27.4418 34.1828 27.4418C33.3047 27.4418 32.6732 27.2768 32.2616 26.8935C31.3285 25.8787 31.0819 25.0823 29.7655 25.0823H29.5189C28.1192 25.0823 27.0777 25.9604 27.4893 27.4701C28.1742 29.9112 30.3687 31.2009 34.0179 31.2009Z" fill="#30323E"/>
<path d="M48.3097 31.2011C49.846 31.2011 51.3274 30.6795 52.4254 29.6097C52.4521 29.8281 52.4789 30.048 52.5621 30.2679C52.6721 30.7062 53.412 30.9262 54.8116 30.9262H55.0583C56.5396 30.9262 57.3078 30.0763 57.2261 28.54C57.1428 26.6737 57.1428 24.2875 57.1428 20.995C57.1428 17.3191 55.1132 15.5078 51.0258 15.5078C47.02 15.5078 44.9071 16.5776 44.2772 18.7187C43.8374 20.2268 44.9621 21.1049 46.4985 21.1049H46.7734C48.118 21.1049 48.228 20.3635 49.0229 19.157C49.3528 18.6637 49.956 18.4705 50.6692 18.4705C51.8756 18.4705 52.4254 19.0753 52.4254 21.0766V22.0097C46.2518 21.8448 43.4258 23.6293 43.4258 27.0586C43.4258 29.9381 45.5936 31.2011 48.3097 31.2011ZM49.7643 28.1001C48.4746 28.1001 47.7882 27.3602 47.7882 26.3171C47.7882 24.5609 49.9827 24.2593 52.4789 24.2043V26.6737C51.8489 27.5786 50.9975 28.1001 49.7643 28.1001Z" fill="#30323E"/>
<path d="M67.2378 27.6068C65.9214 27.6335 65.3449 26.8936 65.3449 25.3023C65.3449 23.8759 65.3182 22.2563 65.3732 20.6933C65.3732 20.2 65.3999 19.7334 65.3999 19.2386L67.5394 19.2119C68.9108 19.2119 69.6523 18.6087 69.6523 17.4839C69.6523 16.3592 68.8292 15.7544 67.3195 15.7544H65.3999V13.3415C65.3999 11.8868 64.3851 11.2553 62.8488 11.7502C61.5591 12.1617 60.9276 13.0116 60.9276 14.383C60.9276 14.8495 60.9558 15.2894 60.9558 15.7544H59.8028C59.0629 15.7544 58.623 16.3859 58.623 17.5106C58.623 18.6354 59.4462 19.2669 60.9558 19.2669H60.9825V20.6933C60.9825 22.4495 60.9825 24.2325 60.9558 25.8505C60.8726 29.828 63.0687 31.256 66.4697 31.256C67.1012 31.256 67.7311 31.201 68.2809 31.091C69.4874 30.8444 69.9539 29.938 69.844 28.7582C69.734 27.6335 68.8292 27.5518 67.2378 27.6068Z" fill="#30323E"/>
<path d="M78.4011 31.2011C81.7754 31.2011 83.8333 30.2397 84.4915 28.2101C84.903 26.9753 83.8882 26.2072 82.4619 26.2072C81.2821 26.2072 81.1722 26.9754 80.1307 27.6618C79.7458 27.8818 79.1693 28.0184 78.4294 28.0184C77.003 28.0184 75.9599 27.3319 75.85 24.5059H84.6014C84.8214 24.5059 84.9863 24.3425 85.013 24.0676C85.5345 18.9654 83.5049 15.5078 78.4011 15.5078C73.6554 15.5078 71.3242 18.0589 71.3242 23.1078C71.3242 28.5117 73.4905 31.2011 78.4011 31.2011ZM75.8782 21.9281C75.8233 19.7052 76.7564 18.6355 78.1827 18.6355C79.7741 18.6355 80.4323 19.7335 80.3773 21.9281H75.8782Z" fill="#30323E"/>
<path d="M94.2585 31.2011C97.6328 31.2011 99.6907 30.2397 100.349 28.2101C100.76 26.9753 99.7457 26.2072 98.3193 26.2072C97.1395 26.2072 97.0296 26.9754 95.9881 27.6618C95.6032 27.8818 95.0267 28.0184 94.2868 28.0184C92.8604 28.0184 91.8174 27.3319 91.7074 24.5059H100.459C100.679 24.5059 100.844 24.3425 100.87 24.0676C101.392 18.9654 99.3624 15.5078 94.2585 15.5078C89.5128 15.5078 87.1816 18.0589 87.1816 23.1078C87.1816 28.5117 89.3479 31.2011 94.2585 31.2011ZM91.7357 21.9281C91.6807 19.7052 92.6138 18.6355 94.0402 18.6355C95.6315 18.6355 96.2897 19.7335 96.2347 21.9281H91.7357Z" fill="#30323E"/>
<path d="M114.668 15.7278C113.132 15.7278 112.364 17.484 112.364 17.484C111.595 16.276 110.389 15.5361 108.853 15.5361C105.615 15.5361 103.037 18.2522 103.037 23.6844C103.037 29.4448 105.615 31.2278 108.934 31.2278C110.636 31.2278 111.815 30.4329 112.612 29.4998C112.418 31.0629 112.364 32.6275 112.337 34.2188C112.31 35.7269 113.132 36.55 114.641 36.55H114.668C116.178 36.55 117.001 35.7269 117.001 34.2188C116.973 30.5429 116.946 27.0587 116.946 23.3545C116.946 21.5432 116.973 19.8153 117.001 18.059C117.001 16.5509 116.178 15.7278 114.668 15.7278ZM110.224 27.3603C108.496 27.3603 107.453 26.3172 107.453 23.4095C107.453 20.0352 108.688 19.2387 110.114 19.2387C111.157 19.2387 112.09 19.6786 112.337 21.0233V23.4911C112.337 24.4792 112.364 25.4673 112.364 26.3989C111.815 27.0587 111.212 27.3603 110.224 27.3603Z" fill="#30323E"/>
<path d="M18.3952 0V12.2373L0 24.473V12.2373L18.3952 0Z" fill="#2506C4"/>
<path d="M18.3952 18.356V30.5917L0 42.8289V30.5917L18.3952 18.356Z" fill="#1E47FF"/>
<path d="M0 24.473L18.3952 30.5916V18.3559L0 12.2373" fill="#38B6FF"/>
</svg>